<svg width="16" height="17" viewBox="0 0 16 17" fill="none" xmlns="http://www.w3.org/2000/svg">
<g opacity="0.3">
<path fill-rule="evenodd" clip-rule="evenodd" d="M11.9512 0.166748C13.024 0.166748 14.056 0.64522 14.8152 1.50376C15.5752 2.3605 16 3.51605 16 4.72578V11.8577C16 14.3765 14.184 16.4167 11.9512 16.4167H4.048C1.8152 16.4167 0 14.3765 0 11.8577V4.72578C0 2.20703 1.8072 0.166748 4.048 0.166748H11.9512ZM13.2247 6.07075L13.2887 5.99853C13.4799 5.73672 13.4799 5.35756 13.2799 5.09575C13.1687 4.96124 13.0159 4.87908 12.8567 4.86103C12.6887 4.8511 12.5287 4.9152 12.4079 5.04158L8.80073 8.29158C8.33673 8.72582 7.67193 8.72582 7.20073 8.29158L3.60073 5.04158C3.35193 4.83395 3.00793 4.86103 2.80072 5.10478C2.58472 5.34853 2.56072 5.73672 2.74393 6.00756L2.84873 6.12492L6.48873 9.32978C6.93673 9.727 7.47993 9.94367 8.04873 9.94367C8.61593 9.94367 9.16873 9.727 9.61593 9.32978L13.2247 6.07075Z" fill="#030229"/>
</g>
</svg>
