<svg width="300" height="52" viewBox="0 0 300 52" fill="none" xmlns="http://www.w3.org/2000/svg">
<g clip-path="url(#clip0_3297_9273)">
<rect x="12" y="2" width="48" height="48" rx="12" fill="#1E293B"/>
<g clip-path="url(#clip1_3297_9273)">
<path d="M34 30V22C34 20.9 34.89 20 36 20H45V19C45 17.9 44.1 17 43 17H29C27.89 17 27 17.9 27 19V33C27 34.1 27.89 35 29 35H43C44.1 35 45 34.1 45 33V32H36C34.89 32 34 31.1 34 30ZM37 22C36.45 22 36 22.45 36 23V29C36 29.55 36.45 30 37 30H46V22H37ZM40 27.5C39.17 27.5 38.5 26.83 38.5 26C38.5 25.17 39.17 24.5 40 24.5C40.83 24.5 41.5 25.17 41.5 26C41.5 26.83 40.83 27.5 40 27.5Z" fill="#94A3B8"/>
</g>
<g clip-path="url(#clip2_3297_9273)">
<path d="M73.176 19V10.6H74.472V17.752H78.408V19H73.176ZM80.6516 19V12.7H81.8876V19H80.6516ZM81.2516 11.308C80.9876 11.308 80.7836 11.24 80.6396 11.104C80.4956 10.968 80.4236 10.776 80.4236 10.528C80.4236 10.296 80.4956 10.108 80.6396 9.964C80.7916 9.82 80.9956 9.748 81.2516 9.748C81.5156 9.748 81.7196 9.816 81.8636 9.952C82.0076 10.088 82.0796 10.28 82.0796 10.528C82.0796 10.76 82.0036 10.948 81.8516 11.092C81.7076 11.236 81.5076 11.308 81.2516 11.308ZM84.8714 19V11.992C84.8714 11.632 84.9514 11.312 85.1114 11.032C85.2714 10.752 85.4914 10.532 85.7714 10.372C86.0514 10.212 86.3754 10.132 86.7434 10.132C86.9994 10.132 87.2394 10.18 87.4634 10.276C87.6874 10.372 87.8674 10.5 88.0034 10.66L87.5834 11.608C87.4794 11.512 87.3634 11.436 87.2354 11.38C87.1154 11.316 86.9994 11.284 86.8874 11.284C86.7194 11.284 86.5754 11.312 86.4554 11.368C86.3434 11.416 86.2594 11.496 86.2034 11.608C86.1474 11.712 86.1194 11.84 86.1194 11.992V19H85.4954C85.3914 19 85.2874 19 85.1834 19C85.0794 19 84.9754 19 84.8714 19ZM83.8634 13.948V12.808H87.6074V13.948H83.8634ZM92.004 19.12C91.356 19.12 90.78 18.984 90.276 18.712C89.78 18.432 89.388 18.052 89.1 17.572C88.82 17.092 88.68 16.54 88.68 15.916C88.68 15.42 88.76 14.968 88.92 14.56C89.08 14.152 89.3 13.8 89.58 13.504C89.868 13.2 90.208 12.968 90.6 12.808C91 12.64 91.432 12.556 91.896 12.556C92.304 12.556 92.684 12.636 93.036 12.796C93.388 12.948 93.692 13.16 93.948 13.432C94.212 13.704 94.412 14.028 94.548 14.404C94.692 14.772 94.76 15.176 94.752 15.616L94.74 16.144H89.592L89.316 15.16H93.672L93.492 15.364V15.076C93.468 14.812 93.38 14.576 93.228 14.368C93.076 14.16 92.884 13.996 92.652 13.876C92.42 13.756 92.168 13.696 91.896 13.696C91.464 13.696 91.1 13.78 90.804 13.948C90.508 14.108 90.284 14.348 90.132 14.668C89.98 14.98 89.904 15.368 89.904 15.832C89.904 16.272 89.996 16.656 90.18 16.984C90.364 17.304 90.624 17.552 90.96 17.728C91.296 17.904 91.684 17.992 92.124 17.992C92.436 17.992 92.724 17.94 92.988 17.836C93.26 17.732 93.552 17.544 93.864 17.272L94.488 18.148C94.296 18.34 94.06 18.508 93.78 18.652C93.508 18.796 93.216 18.912 92.904 19C92.6 19.08 92.3 19.12 92.004 19.12ZM97.2753 19V11.092H98.5113V19H97.2753ZM95.9673 13.9V12.7H99.9753V13.9H95.9673ZM101.705 19V12.7H102.941V19H101.705ZM102.305 11.308C102.041 11.308 101.837 11.24 101.693 11.104C101.549 10.968 101.477 10.776 101.477 10.528C101.477 10.296 101.549 10.108 101.693 9.964C101.845 9.82 102.049 9.748 102.305 9.748C102.569 9.748 102.773 9.816 102.917 9.952C103.061 10.088 103.133 10.28 103.133 10.528C103.133 10.76 103.057 10.948 102.905 11.092C102.761 11.236 102.561 11.308 102.305 11.308ZM105.217 19V12.7H106.465V14.044L106.237 14.188C106.301 13.98 106.401 13.78 106.537 13.588C106.681 13.396 106.853 13.228 107.053 13.084C107.261 12.932 107.481 12.812 107.713 12.724C107.953 12.636 108.197 12.592 108.445 12.592C108.805 12.592 109.121 12.652 109.393 12.772C109.665 12.892 109.889 13.072 110.065 13.312C110.241 13.552 110.369 13.852 110.449 14.212L110.257 14.164L110.341 13.96C110.429 13.776 110.549 13.604 110.701 13.444C110.861 13.276 111.041 13.128 111.241 13C111.441 12.872 111.653 12.772 111.877 12.7C112.101 12.628 112.321 12.592 112.537 12.592C113.009 12.592 113.397 12.688 113.701 12.88C114.013 13.072 114.245 13.364 114.397 13.756C114.557 14.148 114.637 14.636 114.637 15.22V19H113.389V15.292C113.389 14.756 113.285 14.364 113.077 14.116C112.877 13.86 112.561 13.732 112.129 13.732C111.905 13.732 111.693 13.772 111.493 13.852C111.301 13.924 111.133 14.028 110.989 14.164C110.845 14.3 110.733 14.46 110.653 14.644C110.573 14.82 110.533 15.016 110.533 15.232V19H109.285V15.268C109.285 14.772 109.177 14.392 108.961 14.128C108.753 13.864 108.449 13.732 108.049 13.732C107.825 13.732 107.617 13.772 107.425 13.852C107.233 13.924 107.065 14.028 106.921 14.164C106.777 14.292 106.665 14.448 106.585 14.632C106.505 14.808 106.465 15 106.465 15.208V19H105.217ZM119.631 19.12C118.983 19.12 118.407 18.984 117.903 18.712C117.407 18.432 117.015 18.052 116.727 17.572C116.447 17.092 116.307 16.54 116.307 15.916C116.307 15.42 116.387 14.968 116.547 14.56C116.707 14.152 116.927 13.8 117.207 13.504C117.495 13.2 117.835 12.968 118.227 12.808C118.627 12.64 119.059 12.556 119.523 12.556C119.931 12.556 120.311 12.636 120.663 12.796C121.015 12.948 121.319 13.16 121.575 13.432C121.839 13.704 122.039 14.028 122.175 14.404C122.319 14.772 122.387 15.176 122.379 15.616L122.367 16.144H117.219L116.943 15.16H121.299L121.119 15.364V15.076C121.095 14.812 121.007 14.576 120.855 14.368C120.703 14.16 120.511 13.996 120.279 13.876C120.047 13.756 119.795 13.696 119.523 13.696C119.091 13.696 118.727 13.78 118.431 13.948C118.135 14.108 117.911 14.348 117.759 14.668C117.607 14.98 117.531 15.368 117.531 15.832C117.531 16.272 117.623 16.656 117.807 16.984C117.991 17.304 118.251 17.552 118.587 17.728C118.923 17.904 119.311 17.992 119.751 17.992C120.063 17.992 120.351 17.94 120.615 17.836C120.887 17.732 121.179 17.544 121.491 17.272L122.115 18.148C121.923 18.34 121.687 18.508 121.407 18.652C121.135 18.796 120.843 18.912 120.531 19C120.227 19.08 119.927 19.12 119.631 19.12ZM127.886 21.64V12.7H129.134V14.14L128.942 14.032C128.99 13.792 129.126 13.564 129.35 13.348C129.574 13.124 129.846 12.944 130.166 12.808C130.494 12.664 130.83 12.592 131.174 12.592C131.742 12.592 132.246 12.732 132.686 13.012C133.126 13.292 133.474 13.676 133.73 14.164C133.986 14.652 134.114 15.212 134.114 15.844C134.114 16.468 133.986 17.028 133.73 17.524C133.482 18.012 133.138 18.4 132.698 18.688C132.258 18.968 131.762 19.108 131.21 19.108C130.842 19.108 130.486 19.036 130.142 18.892C129.798 18.74 129.506 18.548 129.266 18.316C129.026 18.084 128.878 17.844 128.822 17.596L129.134 17.428V21.64H127.886ZM131.006 17.968C131.374 17.968 131.702 17.876 131.99 17.692C132.278 17.508 132.506 17.256 132.674 16.936C132.842 16.616 132.926 16.252 132.926 15.844C132.926 15.436 132.842 15.076 132.674 14.764C132.514 14.444 132.29 14.192 132.002 14.008C131.714 13.824 131.382 13.732 131.006 13.732C130.63 13.732 130.298 13.824 130.01 14.008C129.722 14.184 129.494 14.432 129.326 14.752C129.158 15.072 129.074 15.436 129.074 15.844C129.074 16.252 129.158 16.616 129.326 16.936C129.494 17.256 129.722 17.508 130.01 17.692C130.298 17.876 130.63 17.968 131.006 17.968ZM138.688 19.12C138.072 19.12 137.52 18.98 137.032 18.7C136.552 18.412 136.172 18.024 135.892 17.536C135.612 17.04 135.472 16.476 135.472 15.844C135.472 15.212 135.612 14.652 135.892 14.164C136.172 13.668 136.552 13.28 137.032 13C137.52 12.712 138.072 12.568 138.688 12.568C139.296 12.568 139.84 12.712 140.32 13C140.808 13.28 141.192 13.668 141.472 14.164C141.752 14.652 141.892 15.212 141.892 15.844C141.892 16.476 141.752 17.04 141.472 17.536C141.192 18.024 140.808 18.412 140.32 18.7C139.84 18.98 139.296 19.12 138.688 19.12ZM138.688 17.992C139.064 17.992 139.4 17.9 139.696 17.716C139.992 17.524 140.224 17.268 140.392 16.948C140.56 16.62 140.64 16.252 140.632 15.844C140.64 15.428 140.56 15.06 140.392 14.74C140.224 14.412 139.992 14.156 139.696 13.972C139.4 13.788 139.064 13.696 138.688 13.696C138.312 13.696 137.972 13.792 137.668 13.984C137.372 14.168 137.14 14.424 136.972 14.752C136.804 15.072 136.724 15.436 136.732 15.844C136.724 16.252 136.804 16.62 136.972 16.948C137.14 17.268 137.372 17.524 137.668 17.716C137.972 17.9 138.312 17.992 138.688 17.992ZM143.843 19V12.7H145.079V19H143.843ZM144.443 11.308C144.179 11.308 143.975 11.24 143.831 11.104C143.687 10.968 143.615 10.776 143.615 10.528C143.615 10.296 143.687 10.108 143.831 9.964C143.983 9.82 144.187 9.748 144.443 9.748C144.707 9.748 144.911 9.816 145.055 9.952C145.199 10.088 145.271 10.28 145.271 10.528C145.271 10.76 145.195 10.948 145.043 11.092C144.899 11.236 144.699 11.308 144.443 11.308ZM147.379 19V12.7H148.615V13.996L148.399 14.14C148.479 13.86 148.635 13.604 148.867 13.372C149.099 13.132 149.375 12.94 149.695 12.796C150.015 12.644 150.343 12.568 150.679 12.568C151.159 12.568 151.559 12.664 151.879 12.856C152.199 13.04 152.439 13.324 152.599 13.708C152.759 14.092 152.839 14.576 152.839 15.16V19H151.603V15.244C151.603 14.884 151.555 14.588 151.459 14.356C151.363 14.116 151.215 13.944 151.015 13.84C150.815 13.728 150.567 13.68 150.271 13.696C150.031 13.696 149.811 13.736 149.611 13.816C149.411 13.888 149.235 13.992 149.083 14.128C148.939 14.264 148.823 14.424 148.735 14.608C148.655 14.784 148.615 14.976 148.615 15.184V19H148.003C147.899 19 147.795 19 147.691 19C147.587 19 147.483 19 147.379 19ZM155.696 19V11.092H156.932V19H155.696ZM154.388 13.9V12.7H158.396V13.9H154.388ZM162.255 19.12C161.727 19.12 161.251 19.028 160.827 18.844C160.403 18.66 160.051 18.388 159.771 18.028L160.611 17.308C160.851 17.588 161.111 17.792 161.391 17.92C161.679 18.04 162.003 18.1 162.363 18.1C162.507 18.1 162.639 18.084 162.759 18.052C162.887 18.012 162.995 17.956 163.083 17.884C163.179 17.812 163.251 17.728 163.299 17.632C163.347 17.528 163.371 17.416 163.371 17.296C163.371 17.088 163.295 16.92 163.143 16.792C163.063 16.736 162.935 16.676 162.759 16.612C162.591 16.54 162.371 16.468 162.099 16.396C161.635 16.276 161.255 16.14 160.959 15.988C160.663 15.836 160.435 15.664 160.275 15.472C160.155 15.32 160.067 15.156 160.011 14.98C159.955 14.796 159.927 14.596 159.927 14.38C159.927 14.028 160.027 13.716 160.227 13.444C160.427 13.172 160.695 12.96 161.031 12.808C161.375 12.648 161.759 12.568 162.183 12.568C162.479 12.568 162.771 12.608 163.059 12.688C163.355 12.768 163.627 12.884 163.875 13.036C164.123 13.188 164.331 13.368 164.499 13.576L163.791 14.356C163.639 14.204 163.471 14.072 163.287 13.96C163.111 13.84 162.931 13.748 162.747 13.684C162.563 13.62 162.395 13.588 162.243 13.588C162.075 13.588 161.923 13.604 161.787 13.636C161.651 13.668 161.535 13.716 161.439 13.78C161.351 13.844 161.283 13.924 161.235 14.02C161.187 14.116 161.163 14.224 161.163 14.344C161.171 14.448 161.195 14.548 161.235 14.644C161.283 14.732 161.347 14.808 161.427 14.872C161.515 14.936 161.647 15.004 161.823 15.076C161.999 15.148 162.223 15.216 162.495 15.28C162.895 15.384 163.223 15.5 163.479 15.628C163.743 15.748 163.951 15.888 164.103 16.048C164.263 16.2 164.375 16.376 164.439 16.576C164.503 16.776 164.535 17 164.535 17.248C164.535 17.608 164.431 17.932 164.223 18.22C164.023 18.5 163.751 18.72 163.407 18.88C163.063 19.04 162.679 19.12 162.255 19.12Z" fill="#94A3B8"/>
<path d="M75.44 39.216V30.144L76.048 30.88L73.776 32.032L73.312 30.224L76.368 28.64H77.504V39.216H75.44ZM73.584 40V38.08H79.424V40H73.584ZM85.4678 40.16C84.5611 40.16 83.7878 39.9307 83.1478 39.472C82.5078 39.0027 82.0118 38.3413 81.6598 37.488C81.3184 36.624 81.1478 35.5947 81.1478 34.4C81.1478 33.2053 81.3184 32.1813 81.6598 31.328C82.0118 30.464 82.5078 29.8027 83.1478 29.344C83.7878 28.8747 84.5611 28.64 85.4678 28.64C86.3744 28.64 87.1478 28.8747 87.7878 29.344C88.4384 29.8027 88.9344 30.464 89.2758 31.328C89.6278 32.1813 89.8038 33.2053 89.8038 34.4C89.8038 35.5947 89.6278 36.624 89.2758 37.488C88.9344 38.3413 88.4384 39.0027 87.7878 39.472C87.1478 39.9307 86.3744 40.16 85.4678 40.16ZM85.4678 38.336C86.2144 38.336 86.7904 37.9947 87.1958 37.312C87.6011 36.6293 87.8038 35.6587 87.8038 34.4C87.8038 33.1307 87.6011 32.1547 87.1958 31.472C86.7904 30.7787 86.2144 30.432 85.4678 30.432C84.7211 30.432 84.1398 30.7787 83.7238 31.472C83.3184 32.1547 83.1158 33.1307 83.1158 34.4C83.1158 35.6587 83.3184 36.6293 83.7238 37.312C84.1398 37.9947 84.7211 38.336 85.4678 38.336ZM95.6303 40.16C94.7236 40.16 93.9503 39.9307 93.3103 39.472C92.6703 39.0027 92.1743 38.3413 91.8223 37.488C91.4809 36.624 91.3103 35.5947 91.3103 34.4C91.3103 33.2053 91.4809 32.1813 91.8223 31.328C92.1743 30.464 92.6703 29.8027 93.3103 29.344C93.9503 28.8747 94.7236 28.64 95.6303 28.64C96.5369 28.64 97.3103 28.8747 97.9503 29.344C98.6009 29.8027 99.0969 30.464 99.4383 31.328C99.7903 32.1813 99.9663 33.2053 99.9663 34.4C99.9663 35.5947 99.7903 36.624 99.4383 37.488C99.0969 38.3413 98.6009 39.0027 97.9503 39.472C97.3103 39.9307 96.5369 40.16 95.6303 40.16ZM95.6303 38.336C96.3769 38.336 96.9529 37.9947 97.3583 37.312C97.7636 36.6293 97.9663 35.6587 97.9663 34.4C97.9663 33.1307 97.7636 32.1547 97.3583 31.472C96.9529 30.7787 96.3769 30.432 95.6303 30.432C94.8836 30.432 94.3023 30.7787 93.8863 31.472C93.4809 32.1547 93.2783 33.1307 93.2783 34.4C93.2783 35.6587 93.4809 36.6293 93.8863 37.312C94.3023 37.9947 94.8836 38.336 95.6303 38.336ZM102.161 42.976L101.505 42.192C101.899 41.9787 102.219 41.728 102.465 41.44C102.71 41.1627 102.833 40.9227 102.833 40.72C102.833 40.6133 102.806 40.5067 102.753 40.4C102.699 40.2933 102.582 40.1547 102.401 39.984C102.177 39.792 102.027 39.6213 101.953 39.472C101.889 39.3227 101.857 39.1573 101.857 38.976C101.857 38.688 101.958 38.464 102.161 38.304C102.363 38.1333 102.619 38.048 102.929 38.048C103.217 38.048 103.473 38.128 103.697 38.288C103.931 38.448 104.113 38.672 104.241 38.96C104.369 39.2373 104.433 39.5627 104.433 39.936C104.433 40.2667 104.374 40.5867 104.257 40.896C104.15 41.216 103.99 41.5093 103.777 41.776C103.574 42.0427 103.334 42.2773 103.057 42.48C102.79 42.6933 102.491 42.8587 102.161 42.976ZM110.283 40.16C109.377 40.16 108.603 39.9307 107.963 39.472C107.323 39.0027 106.827 38.3413 106.475 37.488C106.134 36.624 105.963 35.5947 105.963 34.4C105.963 33.2053 106.134 32.1813 106.475 31.328C106.827 30.464 107.323 29.8027 107.963 29.344C108.603 28.8747 109.377 28.64 110.283 28.64C111.19 28.64 111.963 28.8747 112.603 29.344C113.254 29.8027 113.75 30.464 114.091 31.328C114.443 32.1813 114.619 33.2053 114.619 34.4C114.619 35.5947 114.443 36.624 114.091 37.488C113.75 38.3413 113.254 39.0027 112.603 39.472C111.963 39.9307 111.19 40.16 110.283 40.16ZM110.283 38.336C111.03 38.336 111.606 37.9947 112.011 37.312C112.417 36.6293 112.619 35.6587 112.619 34.4C112.619 33.1307 112.417 32.1547 112.011 31.472C111.606 30.7787 111.03 30.432 110.283 30.432C109.537 30.432 108.955 30.7787 108.539 31.472C108.134 32.1547 107.931 33.1307 107.931 34.4C107.931 35.6587 108.134 36.6293 108.539 37.312C108.955 37.9947 109.537 38.336 110.283 38.336ZM120.446 40.16C119.539 40.16 118.766 39.9307 118.126 39.472C117.486 39.0027 116.99 38.3413 116.638 37.488C116.297 36.624 116.126 35.5947 116.126 34.4C116.126 33.2053 116.297 32.1813 116.638 31.328C116.99 30.464 117.486 29.8027 118.126 29.344C118.766 28.8747 119.539 28.64 120.446 28.64C121.353 28.64 122.126 28.8747 122.766 29.344C123.417 29.8027 123.913 30.464 124.254 31.328C124.606 32.1813 124.782 33.2053 124.782 34.4C124.782 35.5947 124.606 36.624 124.254 37.488C123.913 38.3413 123.417 39.0027 122.766 39.472C122.126 39.9307 121.353 40.16 120.446 40.16ZM120.446 38.336C121.193 38.336 121.769 37.9947 122.174 37.312C122.579 36.6293 122.782 35.6587 122.782 34.4C122.782 33.1307 122.579 32.1547 122.174 31.472C121.769 30.7787 121.193 30.432 120.446 30.432C119.699 30.432 119.118 30.7787 118.702 31.472C118.297 32.1547 118.094 33.1307 118.094 34.4C118.094 35.6587 118.297 36.6293 118.702 37.312C119.118 37.9947 119.699 38.336 120.446 38.336ZM130.608 40.16C129.702 40.16 128.928 39.9307 128.288 39.472C127.648 39.0027 127.152 38.3413 126.8 37.488C126.459 36.624 126.288 35.5947 126.288 34.4C126.288 33.2053 126.459 32.1813 126.8 31.328C127.152 30.464 127.648 29.8027 128.288 29.344C128.928 28.8747 129.702 28.64 130.608 28.64C131.515 28.64 132.288 28.8747 132.928 29.344C133.579 29.8027 134.075 30.464 134.416 31.328C134.768 32.1813 134.944 33.2053 134.944 34.4C134.944 35.5947 134.768 36.624 134.416 37.488C134.075 38.3413 133.579 39.0027 132.928 39.472C132.288 39.9307 131.515 40.16 130.608 40.16ZM130.608 38.336C131.355 38.336 131.931 37.9947 132.336 37.312C132.742 36.6293 132.944 35.6587 132.944 34.4C132.944 33.1307 132.742 32.1547 132.336 31.472C131.931 30.7787 131.355 30.432 130.608 30.432C129.862 30.432 129.28 30.7787 128.864 31.472C128.459 32.1547 128.256 33.1307 128.256 34.4C128.256 35.6587 128.459 36.6293 128.864 37.312C129.28 37.9947 129.862 38.336 130.608 38.336ZM142.038 40V28.8H144.102V40H142.038ZM142.982 35.392V33.52H148.774V35.392H142.982ZM142.982 30.72V28.8H149.462V30.72H142.982ZM154.199 40.16C153.591 40.16 153.063 40.0213 152.615 39.744C152.177 39.4667 151.836 39.0773 151.591 38.576C151.356 38.0747 151.239 37.472 151.239 36.768V31.568H153.191V36.352C153.191 37.0133 153.345 37.536 153.655 37.92C153.975 38.304 154.417 38.496 154.983 38.496C155.26 38.496 155.511 38.4533 155.735 38.368C155.969 38.272 156.172 38.144 156.343 37.984C156.513 37.8133 156.647 37.6107 156.743 37.376C156.839 37.1413 156.887 36.8907 156.887 36.624V31.568H158.839V40H156.935L156.903 38.24L157.255 38.048C157.127 38.4427 156.908 38.8 156.599 39.12C156.3 39.44 155.943 39.696 155.527 39.888C155.111 40.0693 154.668 40.16 154.199 40.16ZM162.189 40V29.424H164.141V40H162.189ZM160.525 33.392V31.568H165.981V33.392H160.525ZM170.709 40.16C169.973 40.16 169.306 40.0373 168.709 39.792C168.122 39.536 167.642 39.1733 167.269 38.704L168.533 37.616C168.853 37.968 169.21 38.2293 169.605 38.4C169.999 38.56 170.415 38.64 170.853 38.64C171.034 38.64 171.194 38.6187 171.333 38.576C171.482 38.5333 171.61 38.4693 171.717 38.384C171.823 38.2987 171.903 38.1973 171.957 38.08C172.021 37.9627 172.053 37.8347 172.053 37.696C172.053 37.44 171.957 37.2373 171.765 37.088C171.658 37.024 171.493 36.9493 171.269 36.864C171.045 36.768 170.751 36.6773 170.389 36.592C169.813 36.4427 169.327 36.272 168.933 36.08C168.549 35.8773 168.25 35.6533 168.037 35.408C167.855 35.1947 167.722 34.9653 167.637 34.72C167.551 34.464 167.509 34.1813 167.509 33.872C167.509 33.392 167.647 32.9653 167.925 32.592C168.213 32.2187 168.591 31.9253 169.061 31.712C169.53 31.4987 170.053 31.392 170.629 31.392C171.055 31.392 171.466 31.4453 171.861 31.552C172.266 31.6587 172.639 31.8133 172.981 32.016C173.322 32.208 173.615 32.4427 173.861 32.72L172.773 33.92C172.581 33.728 172.362 33.5573 172.117 33.408C171.882 33.248 171.642 33.1253 171.397 33.04C171.151 32.9547 170.922 32.912 170.709 32.912C170.506 32.912 170.325 32.9333 170.165 32.976C170.005 33.008 169.871 33.0613 169.765 33.136C169.658 33.2107 169.573 33.3067 169.509 33.424C169.455 33.5307 169.429 33.6533 169.429 33.792C169.439 33.9307 169.471 34.0587 169.525 34.176C169.589 34.2827 169.674 34.3733 169.781 34.448C169.887 34.5227 170.058 34.608 170.293 34.704C170.527 34.8 170.831 34.8907 171.205 34.976C171.727 35.1147 172.165 35.2693 172.517 35.44C172.869 35.6107 173.146 35.808 173.349 36.032C173.551 36.224 173.695 36.448 173.781 36.704C173.866 36.96 173.909 37.248 173.909 37.568C173.909 38.0693 173.765 38.5173 173.477 38.912C173.199 39.296 172.821 39.6 172.341 39.824C171.861 40.048 171.317 40.16 170.709 40.16ZM179.583 40.16C178.74 40.16 177.988 39.9733 177.327 39.6C176.665 39.216 176.143 38.6933 175.759 38.032C175.385 37.3707 175.199 36.6187 175.199 35.776C175.199 34.9333 175.385 34.1813 175.759 33.52C176.143 32.8587 176.665 32.3413 177.327 31.968C177.988 31.584 178.74 31.392 179.583 31.392C180.415 31.392 181.161 31.584 181.823 31.968C182.484 32.3413 183.001 32.8587 183.375 33.52C183.759 34.1813 183.951 34.9333 183.951 35.776C183.951 36.6187 183.759 37.3707 183.375 38.032C183.001 38.6933 182.484 39.216 181.823 39.6C181.161 39.9733 180.415 40.16 179.583 40.16ZM179.583 38.416C180.041 38.416 180.452 38.304 180.815 38.08C181.177 37.8453 181.46 37.5307 181.663 37.136C181.876 36.7307 181.977 36.2773 181.967 35.776C181.977 35.264 181.876 34.8107 181.663 34.416C181.46 34.0107 181.177 33.696 180.815 33.472C180.452 33.248 180.041 33.136 179.583 33.136C179.124 33.136 178.708 33.2533 178.335 33.488C177.972 33.712 177.689 34.0267 177.487 34.432C177.284 34.8267 177.183 35.2747 177.183 35.776C177.183 36.2773 177.284 36.7307 177.487 37.136C177.689 37.5307 177.972 37.8453 178.335 38.08C178.708 38.304 179.124 38.416 179.583 38.416ZM185.827 40V28.16H187.779V40H185.827ZM194.996 43.52V31.568H196.916L196.948 33.472L196.612 33.328C196.676 32.9973 196.857 32.688 197.156 32.4C197.454 32.112 197.817 31.8773 198.244 31.696C198.681 31.5147 199.134 31.424 199.604 31.424C200.35 31.424 201.012 31.6107 201.588 31.984C202.174 32.3573 202.633 32.8747 202.964 33.536C203.305 34.1867 203.476 34.9333 203.476 35.776C203.476 36.6187 203.31 37.3707 202.98 38.032C202.649 38.6827 202.19 39.2 201.604 39.584C201.028 39.9573 200.372 40.144 199.636 40.144C199.145 40.144 198.67 40.048 198.212 39.856C197.764 39.664 197.385 39.4133 197.076 39.104C196.766 38.7947 196.569 38.4747 196.484 38.144L196.964 37.904V43.52H194.996ZM199.252 38.4C199.7 38.4 200.1 38.288 200.452 38.064C200.804 37.84 201.081 37.5307 201.284 37.136C201.486 36.7413 201.588 36.288 201.588 35.776C201.588 35.264 201.486 34.816 201.284 34.432C201.092 34.0373 200.82 33.728 200.468 33.504C200.116 33.2693 199.71 33.152 199.252 33.152C198.782 33.152 198.372 33.264 198.02 33.488C197.668 33.712 197.39 34.0213 197.188 34.416C196.985 34.8107 196.884 35.264 196.884 35.776C196.884 36.288 196.985 36.7413 197.188 37.136C197.39 37.5307 197.668 37.84 198.02 38.064C198.372 38.288 198.782 38.4 199.252 38.4ZM209.17 40.16C208.327 40.16 207.575 39.9733 206.914 39.6C206.253 39.216 205.73 38.6933 205.346 38.032C204.973 37.3707 204.786 36.6187 204.786 35.776C204.786 34.9333 204.973 34.1813 205.346 33.52C205.73 32.8587 206.253 32.3413 206.914 31.968C207.575 31.584 208.327 31.392 209.17 31.392C210.002 31.392 210.749 31.584 211.41 31.968C212.071 32.3413 212.589 32.8587 212.962 33.52C213.346 34.1813 213.538 34.9333 213.538 35.776C213.538 36.6187 213.346 37.3707 212.962 38.032C212.589 38.6933 212.071 39.216 211.41 39.6C210.749 39.9733 210.002 40.16 209.17 40.16ZM209.17 38.416C209.629 38.416 210.039 38.304 210.402 38.08C210.765 37.8453 211.047 37.5307 211.25 37.136C211.463 36.7307 211.565 36.2773 211.554 35.776C211.565 35.264 211.463 34.8107 211.25 34.416C211.047 34.0107 210.765 33.696 210.402 33.472C210.039 33.248 209.629 33.136 209.17 33.136C208.711 33.136 208.295 33.2533 207.922 33.488C207.559 33.712 207.277 34.0267 207.074 34.432C206.871 34.8267 206.77 35.2747 206.77 35.776C206.77 36.2773 206.871 36.7307 207.074 37.136C207.277 37.5307 207.559 37.8453 207.922 38.08C208.295 38.304 208.711 38.416 209.17 38.416ZM215.623 40V31.568H217.575V40H215.623ZM216.583 29.776C216.188 29.776 215.879 29.68 215.655 29.488C215.442 29.2853 215.335 29.0027 215.335 28.64C215.335 28.2987 215.447 28.0267 215.671 27.824C215.895 27.6107 216.199 27.504 216.583 27.504C216.978 27.504 217.282 27.6053 217.495 27.808C217.719 28 217.831 28.2773 217.831 28.64C217.831 28.9707 217.719 29.2427 217.495 29.456C217.271 29.6693 216.967 29.776 216.583 29.776ZM220.171 40V31.568H222.075L222.107 33.296L221.739 33.488C221.856 33.1147 222.064 32.7733 222.363 32.464C222.672 32.144 223.04 31.888 223.467 31.696C223.893 31.4933 224.336 31.392 224.795 31.392C225.435 31.392 225.968 31.52 226.395 31.776C226.832 32.032 227.157 32.416 227.371 32.928C227.584 33.44 227.691 34.08 227.691 34.848V40H225.739V34.992C225.739 34.5547 225.68 34.1973 225.563 33.92C225.445 33.632 225.264 33.424 225.019 33.296C224.773 33.1573 224.475 33.0987 224.123 33.12C223.835 33.12 223.568 33.168 223.323 33.264C223.077 33.3493 222.864 33.4773 222.683 33.648C222.512 33.808 222.373 34 222.267 34.224C222.171 34.4373 222.123 34.672 222.123 34.928V40H221.147C220.965 40 220.789 40 220.619 40C220.459 40 220.309 40 220.171 40ZM230.949 40V29.424H232.901V40H230.949ZM229.285 33.392V31.568H234.741V33.392H229.285ZM239.468 40.16C238.732 40.16 238.065 40.0373 237.468 39.792C236.881 39.536 236.401 39.1733 236.028 38.704L237.292 37.616C237.612 37.968 237.969 38.2293 238.364 38.4C238.759 38.56 239.175 38.64 239.612 38.64C239.793 38.64 239.953 38.6187 240.092 38.576C240.241 38.5333 240.369 38.4693 240.476 38.384C240.583 38.2987 240.663 38.1973 240.716 38.08C240.78 37.9627 240.812 37.8347 240.812 37.696C240.812 37.44 240.716 37.2373 240.524 37.088C240.417 37.024 240.252 36.9493 240.028 36.864C239.804 36.768 239.511 36.6773 239.148 36.592C238.572 36.4427 238.087 36.272 237.692 36.08C237.308 35.8773 237.009 35.6533 236.796 35.408C236.615 35.1947 236.481 34.9653 236.396 34.72C236.311 34.464 236.268 34.1813 236.268 33.872C236.268 33.392 236.407 32.9653 236.684 32.592C236.972 32.2187 237.351 31.9253 237.82 31.712C238.289 31.4987 238.812 31.392 239.388 31.392C239.815 31.392 240.225 31.4453 240.62 31.552C241.025 31.6587 241.399 31.8133 241.74 32.016C242.081 32.208 242.375 32.4427 242.62 32.72L241.532 33.92C241.34 33.728 241.121 33.5573 240.876 33.408C240.641 33.248 240.401 33.1253 240.156 33.04C239.911 32.9547 239.681 32.912 239.468 32.912C239.265 32.912 239.084 32.9333 238.924 32.976C238.764 33.008 238.631 33.0613 238.524 33.136C238.417 33.2107 238.332 33.3067 238.268 33.424C238.215 33.5307 238.188 33.6533 238.188 33.792C238.199 33.9307 238.231 34.0587 238.284 34.176C238.348 34.2827 238.433 34.3733 238.54 34.448C238.647 34.5227 238.817 34.608 239.052 34.704C239.287 34.8 239.591 34.8907 239.964 34.976C240.487 35.1147 240.924 35.2693 241.276 35.44C241.628 35.6107 241.905 35.808 242.108 36.032C242.311 36.224 242.455 36.448 242.54 36.704C242.625 36.96 242.668 37.248 242.668 37.568C242.668 38.0693 242.524 38.5173 242.236 38.912C241.959 39.296 241.58 39.6 241.1 39.824C240.62 40.048 240.076 40.16 239.468 40.16Z" fill="white"/>
</g>
</g>
<defs>
<clipPath id="clip0_3297_9273">
<rect width="300" height="52" fill="white"/>
</clipPath>
<clipPath id="clip1_3297_9273">
<rect width="24" height="24" fill="white" transform="translate(24 14)"/>
</clipPath>
<clipPath id="clip2_3297_9273">
<rect width="212" height="40" fill="white" transform="translate(72 6)"/>
</clipPath>
</defs>
</svg>
