<svg width="14" height="20" viewBox="0 0 14 20" fill="none" xmlns="http://www.w3.org/2000/svg">
<g opacity="0.3">
<path fill-rule="evenodd" clip-rule="evenodd" d="M0 8.32595C0 4.09024 3.16555 0.666687 6.9946 0.666687C10.8344 0.666687 14 4.09024 14 8.32595C14 10.4604 13.3058 12.442 12.1631 14.1215C10.9025 15.9742 9.34883 17.5883 7.59998 18.8554C7.19972 19.1482 6.83848 19.1703 6.39919 18.8554C4.64037 17.5883 3.08666 15.9742 1.83688 14.1215C0.693398 12.442 0 10.4604 0 8.32595ZM4.68945 8.56439C4.68945 9.98336 5.72498 11.0994 6.99469 11.0994C8.26523 11.0994 9.31072 9.98336 9.31072 8.56439C9.31072 7.15648 8.26523 5.98614 6.99469 5.98614C5.72498 5.98614 4.68945 7.15648 4.68945 8.56439Z" fill="#030229"/>
</g>
</svg>
