<svg width="132" height="28" viewBox="0 0 132 28" fill="none" xmlns="http://www.w3.org/2000/svg">
<path d="M0.0175781 16.4298H3.54436C3.54436 17.2026 4.20318 18.0317 5.52328 18.0317C6.61315 18.0317 7.44341 17.4888 7.44341 16.7159C7.44341 16.1437 6.98542 15.8575 5.98127 15.6007L4.20318 15.1703C0.762121 14.2556 0.304129 12.3382 0.304129 10.9344C0.304129 8.87276 2.45449 6.92603 5.55022 6.92603C7.98712 6.92603 10.8526 8.09994 10.8257 11.2768H7.24258C7.24258 10.3597 6.49804 9.87303 5.609 9.87303C4.71995 9.87303 4.06113 10.3597 4.06113 11.0469C4.06113 11.6755 4.63423 11.991 5.37878 12.1915L7.58546 12.7638C10.7963 13.6222 11.198 15.6252 11.198 16.7135C11.198 19.5187 8.33245 20.9787 5.57961 20.9787C2.82676 20.9787 0.046968 19.3793 0.0175781 16.4298Z" fill="white"/>
<path d="M21.8892 7.27087H25.6437V20.6388H21.8892V18.4646C21.3161 20.2108 19.1951 20.9836 17.875 20.9836C14.3776 20.9836 12.5432 18.6358 12.5726 14.6298V7.27087H16.3272V14.4268C16.3272 16.5154 17.5885 17.4888 18.8792 17.4888C20.1699 17.4888 21.8892 16.7453 21.8892 14.3412V7.27087Z" fill="white"/>
<path d="M42.66 13.9401C42.66 18.2616 39.5349 20.9812 36.0963 20.9812C34.5778 20.9812 32.7434 20.3526 31.7956 18.9782V27.1931H28.041V7.27086H31.7956V8.90211C32.7409 7.557 34.5754 6.92603 36.0963 6.92603C39.5373 6.92603 42.66 9.67493 42.66 13.9401ZM38.8197 13.9695C38.8197 11.9934 37.2719 10.4209 35.3787 10.4209C33.4855 10.4209 31.9107 11.9372 31.9107 13.9695C31.9107 16.0018 33.63 17.4912 35.3787 17.4912C37.2694 17.4912 38.8197 15.9456 38.8197 13.9695Z" fill="white"/>
<path d="M58.0613 15.1703H48.0002C48.4019 16.7453 49.6632 17.66 51.4413 17.66C52.8177 17.66 54.1353 17.0314 54.9681 16.085L57.1454 18.2885C55.884 19.9784 53.5622 20.9787 51.2111 20.9787C47.0842 20.9787 44.0742 18.088 44.0742 13.9646C44.0742 9.84124 47.3708 6.92358 51.1841 6.92358C54.9974 6.92358 58.1495 9.64314 58.1495 13.7372C58.1495 14.1089 58.1201 14.5662 58.0638 15.1679L58.0613 15.1703ZM54.3631 12.7369C54.248 11.1619 52.9573 10.1616 51.2674 10.1616C49.7195 10.1616 48.4019 10.9344 48.0002 12.7369H54.3631Z" fill="white"/>
<path d="M69.9679 7.35646L69.1083 10.9344C68.305 10.504 67.6461 10.4478 67.1881 10.4478C65.268 10.4478 63.9479 12.2502 63.9479 16.0581V20.6388H60.1934V7.27086H63.9185V10.1323C64.6631 7.89939 66.184 6.92603 67.847 6.92603C68.5646 6.92603 69.3654 7.04097 69.9679 7.35646Z" fill="white"/>
<path d="M72.0176 20.6388V0H75.7721V20.6388H72.0176Z" fill="white"/>
<path d="M77.6055 13.9695C77.6055 9.73362 80.9877 6.92847 84.8011 6.92847C88.6144 6.92847 91.9967 9.73362 91.9967 13.9695C91.9967 18.2053 88.6144 20.9836 84.8011 20.9836C80.9877 20.9836 77.6055 18.1784 77.6055 13.9695ZM88.1834 13.9695C88.1834 11.8809 86.6649 10.4208 84.8011 10.4208C82.9373 10.4208 81.4188 11.8809 81.4188 13.9695C81.4188 16.0581 82.9373 17.4912 84.8011 17.4912C86.6649 17.4912 88.1834 16.0312 88.1834 13.9695Z" fill="white"/>
<path d="M101.723 7.27087H105.764L97.5082 27.1931H93.494L96.6755 19.3793L91.373 7.27087H95.4999L98.6519 14.9991L101.718 7.27087H101.723Z" fill="white"/>
<path d="M116.895 7.27086H120.65V20.6388H116.895V18.7214C116.006 20.0958 114.287 20.9836 112.482 20.9836C108.784 20.9836 106.033 18.1222 106.033 13.9695C106.033 9.81677 108.727 6.92847 112.568 6.92847C114.287 6.92847 116.009 7.67194 116.895 9.0464V7.27086ZM116.78 13.9695C116.78 11.9371 115.147 10.4208 113.283 10.4208C111.419 10.4208 109.871 12.0227 109.871 13.9695C109.871 15.9162 111.333 17.4912 113.312 17.4912C115.291 17.4912 116.78 15.8893 116.78 13.9695Z" fill="white"/>
<path d="M123.121 20.6388V0H126.876V20.6388H123.121Z" fill="white"/>
<path d="M128.249 2.21225V0.477214H127.598V0H129.462V0.477214H128.789V2.21225H128.249Z" fill="white"/>
<path d="M129.776 2.21225V0H130.26L131.062 1.30523L130.721 1.30207L131.533 0H132.001V2.21225H131.476V1.54225C131.476 1.34842 131.48 1.1746 131.489 1.0208C131.499 0.864885 131.516 0.712134 131.539 0.562544L131.6 0.726882L130.99 1.67183H130.775L130.177 0.733203L130.237 0.562544C130.263 0.703707 130.28 0.850136 130.288 1.00183C130.299 1.15142 130.304 1.33156 130.304 1.54225V2.21225H129.776Z" fill="white"/>
</svg>
