<svg width="20" height="20" viewBox="0 0 20 20" fill="none" xmlns="http://www.w3.org/2000/svg">
<path fill-rule="evenodd" clip-rule="evenodd" d="M17 10C17 13.866 13.866 17 10 17C6.13401 17 3 13.866 3 10C3 6.13401 6.13401 3 10 3C13.866 3 17 6.13401 17 10ZM10 7.375C9.67724 7.375 9.39415 7.54931 9.24154 7.81314C8.99956 8.23144 8.4643 8.37438 8.046 8.13241C7.62769 7.89043 7.48475 7.35517 7.72673 6.93686C8.17928 6.15453 9.02729 5.625 10 5.625C11.4498 5.625 12.625 6.80025 12.625 8.25C12.625 9.39294 11.8946 10.3653 10.875 10.7256V10.875C10.875 11.3582 10.4833 11.75 10 11.75C9.51676 11.75 9.12501 11.3582 9.12501 10.875V10C9.12501 9.51675 9.51676 9.125 10 9.125C10.4833 9.125 10.875 8.73325 10.875 8.25C10.875 7.76675 10.4833 7.375 10 7.375ZM10 14.375C10.4832 14.375 10.875 13.9832 10.875 13.5C10.875 13.0168 10.4832 12.625 10 12.625C9.51675 12.625 9.125 13.0168 9.125 13.5C9.125 13.9832 9.51675 14.375 10 14.375Z" fill="#171717"/>
</svg>