<svg width="76" height="24" viewBox="0 0 76 24" fill="none" xmlns="http://www.w3.org/2000/svg">
<rect width="76" height="24" rx="12" fill="#FEF2F2"/>
<path d="M11.2884 16V7.6H16.5204V8.584H12.4884V11.308H15.8604V12.268H12.4884V16H11.2884ZM19.3024 16.144C18.8144 16.144 18.4064 16.06 18.0784 15.892C17.7584 15.716 17.5184 15.484 17.3584 15.196C17.1984 14.908 17.1184 14.596 17.1184 14.26C17.1184 13.86 17.2184 13.516 17.4184 13.228C17.6264 12.94 17.9224 12.72 18.3064 12.568C18.6904 12.416 19.1504 12.34 19.6864 12.34H21.2464C21.2464 11.972 21.1984 11.668 21.1024 11.428C21.0064 11.188 20.8544 11.008 20.6464 10.888C20.4464 10.768 20.1864 10.708 19.8664 10.708C19.5144 10.708 19.2144 10.792 18.9664 10.96C18.7184 11.128 18.5624 11.376 18.4984 11.704H17.2984C17.3464 11.28 17.4904 10.92 17.7304 10.624C17.9704 10.328 18.2744 10.1 18.6424 9.94C19.0184 9.78 19.4264 9.7 19.8664 9.7C20.4344 9.7 20.9064 9.8 21.2824 10C21.6664 10.2 21.9544 10.484 22.1464 10.852C22.3464 11.212 22.4464 11.644 22.4464 12.148V16H21.3904L21.2944 14.968C21.2144 15.136 21.1104 15.292 20.9824 15.436C20.8624 15.572 20.7184 15.696 20.5504 15.808C20.3904 15.912 20.2064 15.992 19.9984 16.048C19.7904 16.112 19.5584 16.144 19.3024 16.144ZM19.5304 15.172C19.7784 15.172 20.0064 15.12 20.2144 15.016C20.4224 14.904 20.5984 14.76 20.7424 14.584C20.8944 14.4 21.0104 14.196 21.0904 13.972C21.1704 13.74 21.2144 13.496 21.2224 13.24V13.18H19.8064C19.4624 13.18 19.1864 13.224 18.9784 13.312C18.7704 13.4 18.6184 13.52 18.5224 13.672C18.4264 13.816 18.3784 13.984 18.3784 14.176C18.3784 14.376 18.4224 14.552 18.5104 14.704C18.5984 14.848 18.7304 14.964 18.9064 15.052C19.0824 15.132 19.2904 15.172 19.5304 15.172ZM24.1093 16V9.844H25.3093V16H24.1093ZM24.7093 8.74C24.4773 8.74 24.2853 8.668 24.1333 8.524C23.9893 8.38 23.9173 8.196 23.9173 7.972C23.9173 7.756 23.9893 7.58 24.1333 7.444C24.2853 7.3 24.4773 7.228 24.7093 7.228C24.9333 7.228 25.1213 7.3 25.2733 7.444C25.4253 7.58 25.5013 7.756 25.5013 7.972C25.5013 8.196 25.4253 8.38 25.2733 8.524C25.1213 8.668 24.9333 8.74 24.7093 8.74ZM27.037 16V7.36H28.237V16H27.037ZM32.6204 16.144C32.0364 16.144 31.5204 16.012 31.0724 15.748C30.6324 15.476 30.2884 15.1 30.0404 14.62C29.7924 14.14 29.6684 13.58 29.6684 12.94C29.6684 12.292 29.7924 11.728 30.0404 11.248C30.2884 10.76 30.6364 10.38 31.0844 10.108C31.5324 9.836 32.0484 9.7 32.6324 9.7C33.2324 9.7 33.7444 9.836 34.1684 10.108C34.5924 10.372 34.9164 10.728 35.1404 11.176C35.3644 11.616 35.4764 12.108 35.4764 12.652C35.4764 12.732 35.4724 12.816 35.4644 12.904C35.4644 12.992 35.4604 13.092 35.4524 13.204H30.5444V12.364H34.2764C34.2604 11.836 34.0964 11.428 33.7844 11.14C33.4724 10.844 33.0844 10.696 32.6204 10.696C32.3004 10.696 32.0044 10.772 31.7324 10.924C31.4684 11.076 31.2524 11.3 31.0844 11.596C30.9244 11.884 30.8444 12.252 30.8444 12.7V13.036C30.8444 13.492 30.9244 13.88 31.0844 14.2C31.2444 14.512 31.4564 14.748 31.7204 14.908C31.9924 15.068 32.2884 15.148 32.6084 15.148C33.0084 15.148 33.3284 15.068 33.5684 14.908C33.8084 14.74 33.9844 14.516 34.0964 14.236H35.3084C35.2044 14.596 35.0284 14.92 34.7804 15.208C34.5324 15.496 34.2244 15.724 33.8564 15.892C33.4964 16.06 33.0844 16.144 32.6204 16.144ZM39.4739 16.144C38.9139 16.144 38.4139 16.004 37.9739 15.724C37.5419 15.444 37.2059 15.064 36.9659 14.584C36.7259 14.096 36.6059 13.544 36.6059 12.928C36.6059 12.304 36.7259 11.752 36.9659 11.272C37.2139 10.784 37.5539 10.4 37.9859 10.12C38.4259 9.84 38.9339 9.7 39.5099 9.7C39.9819 9.7 40.3939 9.796 40.7459 9.988C41.0979 10.172 41.3739 10.432 41.5739 10.768V7.36H42.7739V16H41.7059L41.5859 15.052C41.4579 15.244 41.2979 15.424 41.1059 15.592C40.9219 15.752 40.6939 15.884 40.4219 15.988C40.1499 16.092 39.8339 16.144 39.4739 16.144ZM39.6899 15.1C40.0659 15.1 40.3939 15.012 40.6739 14.836C40.9619 14.652 41.1819 14.4 41.3339 14.08C41.4859 13.752 41.5619 13.368 41.5619 12.928C41.5619 12.488 41.4859 12.104 41.3339 11.776C41.1819 11.448 40.9619 11.196 40.6739 11.02C40.3939 10.836 40.0659 10.744 39.6899 10.744C39.3299 10.744 39.0099 10.836 38.7299 11.02C38.4499 11.196 38.2299 11.448 38.0699 11.776C37.9099 12.104 37.8299 12.488 37.8299 12.928C37.8299 13.36 37.9099 13.74 38.0699 14.068C38.2299 14.396 38.4499 14.652 38.7299 14.836C39.0099 15.012 39.3299 15.1 39.6899 15.1Z" fill="#EF4444"/>
<path fill-rule="evenodd" clip-rule="evenodd" d="M58 17.6C61.0928 17.6 63.6 15.0928 63.6 12C63.6 8.9072 61.0928 6.39999 58 6.39999C54.9072 6.39999 52.4 8.9072 52.4 12C52.4 15.0928 54.9072 17.6 58 17.6ZM57.095 10.105C56.8216 9.83165 56.3784 9.83165 56.105 10.105C55.8317 10.3784 55.8317 10.8216 56.105 11.095L57.01 12L56.105 12.905C55.8317 13.1784 55.8317 13.6216 56.105 13.895C56.3784 14.1683 56.8216 14.1683 57.095 13.895L58 12.9899L58.905 13.895C59.1784 14.1683 59.6216 14.1683 59.895 13.895C60.1683 13.6216 60.1683 13.1784 59.895 12.905L58.9899 12L59.895 11.095C60.1683 10.8216 60.1683 10.3784 59.895 10.105C59.6216 9.83165 59.1784 9.83165 58.905 10.105L58 11.01L57.095 10.105Z" fill="#EF4444"/>
</svg>