<svg width="50" height="50" viewBox="0 0 50 50" fill="none" xmlns="http://www.w3.org/2000/svg">
<g clip-path="url(#clip0_568_21413)">
<rect x="1" y="1" width="48" height="48" rx="24" fill="#171717"/>
</g>
<rect x="1" y="1" width="48" height="48" rx="24" stroke="white" stroke-width="2"/>
<circle cx="43" cy="43" r="5.6" fill="#BA6F41" stroke="white" stroke-width="1.2"/>
<path d="M9.30576 23.9847V24.6662H10.5628V25.6432H9.30576V27.5717H7.3V22.4291H11.8889V23.9847H9.30576ZM15.7217 27.7C14.2745 27.7 13.2398 26.813 13.2398 25.5209V22.4291H15.0997V25.3926C15.0997 25.9196 15.3347 26.1189 15.7217 26.1189C16.1089 26.1189 16.35 25.9196 16.35 25.3926V22.4291H18.2099V25.5213C18.2099 26.813 17.1755 27.7 15.7217 27.7ZM23.1213 23.9847V27.5717H21.1156V23.9847H19.5604V22.4291H24.6701V23.9847H23.1213ZM28.2901 27.7C26.9318 27.7 25.7767 27.0507 25.7767 25.9386H27.3573C27.421 26.4273 28.0048 26.5302 28.2713 26.5302C28.6331 26.5302 28.963 26.4402 28.963 26.2344C28.963 25.5916 25.8592 26.0867 25.8592 24.0872C25.8592 23.2196 26.678 22.3004 28.2518 22.3004C29.5786 22.3004 30.5497 23.0074 30.5497 23.9589H29.0264C28.963 23.4702 28.5312 23.3609 28.2646 23.3609C27.9028 23.3609 27.6426 23.4573 27.6426 23.6566C27.6426 23.9011 28.0299 23.9972 28.5248 24.1066C29.4452 24.3059 30.7529 24.6465 30.7529 25.8615C30.7529 26.8195 30.0926 27.7 28.2901 27.7ZM34.4026 27.7C32.9491 27.7 31.7685 26.4914 31.7685 25C31.7685 23.5086 32.9491 22.3 34.4026 22.3C35.8561 22.3 37.0367 23.5086 37.0367 25C37.0371 26.4914 35.8565 27.7 34.4026 27.7ZM34.4026 23.8112C34.0663 23.8112 33.7934 24.1005 33.7934 25.0004C33.7934 25.9002 34.0663 26.196 34.4026 26.196C34.7393 26.196 35.0122 25.9002 35.0122 25.0004C35.0122 24.1001 34.7393 23.8112 34.4026 23.8112ZM38.2569 27.5717V22.4291H40.2627V26.0225H42.7V27.5717H38.2569Z" fill="white"/>
<defs>
<clipPath id="clip0_568_21413">
<rect x="1" y="1" width="48" height="48" rx="24" fill="white"/>
</clipPath>
</defs>
</svg>