<svg width="300" height="52" viewBox="0 0 300 52" fill="none" xmlns="http://www.w3.org/2000/svg">
<g clip-path="url(#clip0_3297_9275)">
<rect x="12" y="2" width="48" height="48" rx="12" fill="#1E293B"/>
<g clip-path="url(#clip1_3297_9275)">
<path d="M35 17.18V34.82C35 35.46 34.41 35.94 33.79 35.8C29.32 34.8 26 30.79 26 26C26 21.21 29.32 17.2 33.79 16.2C34.41 16.06 35 16.54 35 17.18ZM37.03 17.18V23.99C37.03 24.54 37.48 24.99 38.03 24.99H44.82C45.46 24.99 45.94 24.4 45.8 23.77C44.95 20.01 42 17.05 38.25 16.2C37.62 16.06 37.03 16.54 37.03 17.18ZM37.03 28.01V34.82C37.03 35.46 37.62 35.94 38.25 35.8C42.01 34.95 44.96 31.98 45.81 28.22C45.95 27.6 45.46 27 44.83 27H38.04C37.48 27.01 37.03 27.46 37.03 28.01Z" fill="#94A3B8"/>
</g>
<g clip-path="url(#clip2_3297_9275)">
<path d="M73.176 19V10.6H76.596C77.052 10.6 77.464 10.716 77.832 10.948C78.208 11.172 78.508 11.48 78.732 11.872C78.956 12.264 79.068 12.7 79.068 13.18C79.068 13.66 78.956 14.096 78.732 14.488C78.508 14.88 78.208 15.196 77.832 15.436C77.464 15.668 77.052 15.784 76.596 15.784H74.472V19H73.176ZM74.472 14.536H76.572C76.788 14.536 76.984 14.476 77.16 14.356C77.336 14.228 77.476 14.064 77.58 13.864C77.692 13.656 77.748 13.428 77.748 13.18C77.748 12.932 77.692 12.708 77.58 12.508C77.476 12.308 77.336 12.148 77.16 12.028C76.984 11.908 76.788 11.848 76.572 11.848H74.472V14.536ZM83.5843 19.12C82.9683 19.12 82.4163 18.98 81.9283 18.7C81.4483 18.412 81.0683 18.024 80.7883 17.536C80.5083 17.04 80.3683 16.476 80.3683 15.844C80.3683 15.212 80.5083 14.652 80.7883 14.164C81.0683 13.668 81.4483 13.28 81.9283 13C82.4163 12.712 82.9683 12.568 83.5843 12.568C84.1923 12.568 84.7363 12.712 85.2163 13C85.7043 13.28 86.0883 13.668 86.3683 14.164C86.6483 14.652 86.7883 15.212 86.7883 15.844C86.7883 16.476 86.6483 17.04 86.3683 17.536C86.0883 18.024 85.7043 18.412 85.2163 18.7C84.7363 18.98 84.1923 19.12 83.5843 19.12ZM83.5843 17.992C83.9603 17.992 84.2963 17.9 84.5923 17.716C84.8883 17.524 85.1203 17.268 85.2883 16.948C85.4563 16.62 85.5363 16.252 85.5283 15.844C85.5363 15.428 85.4563 15.06 85.2883 14.74C85.1203 14.412 84.8883 14.156 84.5923 13.972C84.2963 13.788 83.9603 13.696 83.5843 13.696C83.2083 13.696 82.8683 13.792 82.5643 13.984C82.2683 14.168 82.0363 14.424 81.8683 14.752C81.7003 15.072 81.6203 15.436 81.6283 15.844C81.6203 16.252 81.7003 16.62 81.8683 16.948C82.0363 17.268 82.2683 17.524 82.5643 17.716C82.8683 17.9 83.2083 17.992 83.5843 17.992ZM88.7391 19V12.7H89.9751V19H88.7391ZM89.3391 11.308C89.0751 11.308 88.8711 11.24 88.7271 11.104C88.5831 10.968 88.5111 10.776 88.5111 10.528C88.5111 10.296 88.5831 10.108 88.7271 9.964C88.8791 9.82 89.0831 9.748 89.3391 9.748C89.6031 9.748 89.8071 9.816 89.9511 9.952C90.0951 10.088 90.1671 10.28 90.1671 10.528C90.1671 10.76 90.0911 10.948 89.9391 11.092C89.7951 11.236 89.5951 11.308 89.3391 11.308ZM92.2749 19V12.7H93.5109V13.996L93.2949 14.14C93.3749 13.86 93.5309 13.604 93.7629 13.372C93.9949 13.132 94.2709 12.94 94.5909 12.796C94.9109 12.644 95.2389 12.568 95.5749 12.568C96.0549 12.568 96.4549 12.664 96.7749 12.856C97.0949 13.04 97.3349 13.324 97.4949 13.708C97.6549 14.092 97.7349 14.576 97.7349 15.16V19H96.4989V15.244C96.4989 14.884 96.4509 14.588 96.3549 14.356C96.2589 14.116 96.1109 13.944 95.9109 13.84C95.7109 13.728 95.4629 13.68 95.1669 13.696C94.9269 13.696 94.7069 13.736 94.5069 13.816C94.3069 13.888 94.1309 13.992 93.9789 14.128C93.8349 14.264 93.7189 14.424 93.6309 14.608C93.5509 14.784 93.5109 14.976 93.5109 15.184V19H92.8989C92.7949 19 92.6909 19 92.5869 19C92.4829 19 92.3789 19 92.2749 19ZM100.592 19V11.092H101.828V19H100.592ZM99.2837 13.9V12.7H103.292V13.9H99.2837ZM107.152 19.12C106.624 19.12 106.148 19.028 105.724 18.844C105.3 18.66 104.948 18.388 104.668 18.028L105.508 17.308C105.748 17.588 106.008 17.792 106.288 17.92C106.576 18.04 106.9 18.1 107.26 18.1C107.404 18.1 107.536 18.084 107.656 18.052C107.784 18.012 107.892 17.956 107.98 17.884C108.076 17.812 108.148 17.728 108.196 17.632C108.244 17.528 108.268 17.416 108.268 17.296C108.268 17.088 108.192 16.92 108.04 16.792C107.96 16.736 107.832 16.676 107.656 16.612C107.488 16.54 107.268 16.468 106.996 16.396C106.532 16.276 106.152 16.14 105.856 15.988C105.56 15.836 105.332 15.664 105.172 15.472C105.052 15.32 104.964 15.156 104.908 14.98C104.852 14.796 104.824 14.596 104.824 14.38C104.824 14.028 104.924 13.716 105.124 13.444C105.324 13.172 105.592 12.96 105.928 12.808C106.272 12.648 106.656 12.568 107.08 12.568C107.376 12.568 107.668 12.608 107.956 12.688C108.252 12.768 108.524 12.884 108.772 13.036C109.02 13.188 109.228 13.368 109.396 13.576L108.688 14.356C108.536 14.204 108.368 14.072 108.184 13.96C108.008 13.84 107.828 13.748 107.644 13.684C107.46 13.62 107.292 13.588 107.14 13.588C106.972 13.588 106.82 13.604 106.684 13.636C106.548 13.668 106.432 13.716 106.336 13.78C106.248 13.844 106.18 13.924 106.132 14.02C106.084 14.116 106.06 14.224 106.06 14.344C106.068 14.448 106.092 14.548 106.132 14.644C106.18 14.732 106.244 14.808 106.324 14.872C106.412 14.936 106.544 15.004 106.72 15.076C106.896 15.148 107.12 15.216 107.392 15.28C107.792 15.384 108.12 15.5 108.376 15.628C108.64 15.748 108.848 15.888 109 16.048C109.16 16.2 109.272 16.376 109.336 16.576C109.4 16.776 109.432 17 109.432 17.248C109.432 17.608 109.328 17.932 109.12 18.22C108.92 18.5 108.648 18.72 108.304 18.88C107.96 19.04 107.576 19.12 107.152 19.12ZM114.957 19V12.7H116.205V14.68L116.085 14.2C116.173 13.896 116.321 13.62 116.529 13.372C116.745 13.124 116.989 12.928 117.261 12.784C117.541 12.64 117.829 12.568 118.125 12.568C118.261 12.568 118.389 12.58 118.509 12.604C118.637 12.628 118.737 12.656 118.809 12.688L118.485 14.032C118.389 13.992 118.281 13.96 118.161 13.936C118.049 13.904 117.937 13.888 117.825 13.888C117.609 13.888 117.401 13.932 117.201 14.02C117.009 14.1 116.837 14.216 116.685 14.368C116.541 14.512 116.425 14.684 116.337 14.884C116.249 15.076 116.205 15.288 116.205 15.52V19H114.957ZM122.867 19.12C122.219 19.12 121.643 18.984 121.139 18.712C120.643 18.432 120.251 18.052 119.963 17.572C119.683 17.092 119.543 16.54 119.543 15.916C119.543 15.42 119.623 14.968 119.783 14.56C119.943 14.152 120.163 13.8 120.443 13.504C120.731 13.2 121.071 12.968 121.463 12.808C121.863 12.64 122.295 12.556 122.759 12.556C123.167 12.556 123.547 12.636 123.899 12.796C124.251 12.948 124.555 13.16 124.811 13.432C125.075 13.704 125.275 14.028 125.411 14.404C125.555 14.772 125.623 15.176 125.615 15.616L125.603 16.144H120.455L120.179 15.16H124.535L124.355 15.364V15.076C124.331 14.812 124.243 14.576 124.091 14.368C123.939 14.16 123.747 13.996 123.515 13.876C123.283 13.756 123.031 13.696 122.759 13.696C122.327 13.696 121.963 13.78 121.667 13.948C121.371 14.108 121.147 14.348 120.995 14.668C120.843 14.98 120.767 15.368 120.767 15.832C120.767 16.272 120.859 16.656 121.043 16.984C121.227 17.304 121.487 17.552 121.823 17.728C122.159 17.904 122.547 17.992 122.987 17.992C123.299 17.992 123.587 17.94 123.851 17.836C124.123 17.732 124.415 17.544 124.727 17.272L125.351 18.148C125.159 18.34 124.923 18.508 124.643 18.652C124.371 18.796 124.079 18.912 123.767 19C123.463 19.08 123.163 19.12 122.867 19.12ZM129.987 19.12C129.411 19.12 128.895 18.98 128.439 18.7C127.991 18.412 127.635 18.024 127.371 17.536C127.107 17.04 126.975 16.476 126.975 15.844C126.975 15.212 127.103 14.652 127.359 14.164C127.623 13.668 127.979 13.28 128.427 13C128.875 12.712 129.383 12.568 129.951 12.568C130.263 12.568 130.563 12.62 130.851 12.724C131.147 12.82 131.411 12.956 131.643 13.132C131.875 13.3 132.055 13.488 132.183 13.696C132.319 13.896 132.387 14.1 132.387 14.308L132.027 14.332V10.12H133.263V19H132.027V17.5H132.267C132.267 17.692 132.203 17.884 132.075 18.076C131.947 18.26 131.775 18.432 131.559 18.592C131.351 18.752 131.107 18.88 130.827 18.976C130.555 19.072 130.275 19.12 129.987 19.12ZM130.155 18.052C130.531 18.052 130.863 17.956 131.151 17.764C131.439 17.572 131.663 17.312 131.823 16.984C131.991 16.648 132.075 16.268 132.075 15.844C132.075 15.42 131.991 15.044 131.823 14.716C131.663 14.38 131.439 14.116 131.151 13.924C130.863 13.732 130.531 13.636 130.155 13.636C129.779 13.636 129.447 13.732 129.159 13.924C128.871 14.116 128.643 14.38 128.475 14.716C128.315 15.044 128.235 15.42 128.235 15.844C128.235 16.268 128.315 16.648 128.475 16.984C128.643 17.312 128.871 17.572 129.159 17.764C129.447 17.956 129.779 18.052 130.155 18.052ZM138.304 19.12C137.656 19.12 137.08 18.984 136.576 18.712C136.08 18.432 135.688 18.052 135.4 17.572C135.12 17.092 134.98 16.54 134.98 15.916C134.98 15.42 135.06 14.968 135.22 14.56C135.38 14.152 135.6 13.8 135.88 13.504C136.168 13.2 136.508 12.968 136.9 12.808C137.3 12.64 137.732 12.556 138.196 12.556C138.604 12.556 138.984 12.636 139.336 12.796C139.688 12.948 139.992 13.16 140.248 13.432C140.512 13.704 140.712 14.028 140.848 14.404C140.992 14.772 141.06 15.176 141.052 15.616L141.04 16.144H135.892L135.616 15.16H139.972L139.792 15.364V15.076C139.768 14.812 139.68 14.576 139.528 14.368C139.376 14.16 139.184 13.996 138.952 13.876C138.72 13.756 138.468 13.696 138.196 13.696C137.764 13.696 137.4 13.78 137.104 13.948C136.808 14.108 136.584 14.348 136.432 14.668C136.28 14.98 136.204 15.368 136.204 15.832C136.204 16.272 136.296 16.656 136.48 16.984C136.664 17.304 136.924 17.552 137.26 17.728C137.596 17.904 137.984 17.992 138.424 17.992C138.736 17.992 139.024 17.94 139.288 17.836C139.56 17.732 139.852 17.544 140.164 17.272L140.788 18.148C140.596 18.34 140.36 18.508 140.08 18.652C139.808 18.796 139.516 18.912 139.204 19C138.9 19.08 138.6 19.12 138.304 19.12ZM145.735 19.12C145.087 19.12 144.511 18.984 144.007 18.712C143.511 18.432 143.119 18.052 142.831 17.572C142.551 17.092 142.411 16.54 142.411 15.916C142.411 15.42 142.491 14.968 142.651 14.56C142.811 14.152 143.031 13.8 143.311 13.504C143.599 13.2 143.939 12.968 144.331 12.808C144.731 12.64 145.163 12.556 145.627 12.556C146.035 12.556 146.415 12.636 146.767 12.796C147.119 12.948 147.423 13.16 147.679 13.432C147.943 13.704 148.143 14.028 148.279 14.404C148.423 14.772 148.491 15.176 148.483 15.616L148.471 16.144H143.323L143.047 15.16H147.403L147.223 15.364V15.076C147.199 14.812 147.111 14.576 146.959 14.368C146.807 14.16 146.615 13.996 146.383 13.876C146.151 13.756 145.899 13.696 145.627 13.696C145.195 13.696 144.831 13.78 144.535 13.948C144.239 14.108 144.015 14.348 143.863 14.668C143.711 14.98 143.635 15.368 143.635 15.832C143.635 16.272 143.727 16.656 143.911 16.984C144.095 17.304 144.355 17.552 144.691 17.728C145.027 17.904 145.415 17.992 145.855 17.992C146.167 17.992 146.455 17.94 146.719 17.836C146.991 17.732 147.283 17.544 147.595 17.272L148.219 18.148C148.027 18.34 147.791 18.508 147.511 18.652C147.239 18.796 146.947 18.912 146.635 19C146.331 19.08 146.031 19.12 145.735 19.12ZM150.203 19V12.7H151.451V14.044L151.223 14.188C151.287 13.98 151.387 13.78 151.523 13.588C151.667 13.396 151.839 13.228 152.039 13.084C152.247 12.932 152.467 12.812 152.699 12.724C152.939 12.636 153.183 12.592 153.431 12.592C153.791 12.592 154.107 12.652 154.379 12.772C154.651 12.892 154.875 13.072 155.051 13.312C155.227 13.552 155.355 13.852 155.435 14.212L155.243 14.164L155.327 13.96C155.415 13.776 155.535 13.604 155.687 13.444C155.847 13.276 156.027 13.128 156.227 13C156.427 12.872 156.639 12.772 156.863 12.7C157.087 12.628 157.307 12.592 157.523 12.592C157.995 12.592 158.383 12.688 158.687 12.88C158.999 13.072 159.231 13.364 159.383 13.756C159.543 14.148 159.623 14.636 159.623 15.22V19H158.375V15.292C158.375 14.756 158.271 14.364 158.063 14.116C157.863 13.86 157.547 13.732 157.115 13.732C156.891 13.732 156.679 13.772 156.479 13.852C156.287 13.924 156.119 14.028 155.975 14.164C155.831 14.3 155.719 14.46 155.639 14.644C155.559 14.82 155.519 15.016 155.519 15.232V19H154.271V15.268C154.271 14.772 154.163 14.392 153.947 14.128C153.739 13.864 153.435 13.732 153.035 13.732C152.811 13.732 152.603 13.772 152.411 13.852C152.219 13.924 152.051 14.028 151.907 14.164C151.763 14.292 151.651 14.448 151.571 14.632C151.491 14.808 151.451 15 151.451 15.208V19H150.203ZM164.617 19.12C163.969 19.12 163.393 18.984 162.889 18.712C162.393 18.432 162.001 18.052 161.713 17.572C161.433 17.092 161.293 16.54 161.293 15.916C161.293 15.42 161.373 14.968 161.533 14.56C161.693 14.152 161.913 13.8 162.193 13.504C162.481 13.2 162.821 12.968 163.213 12.808C163.613 12.64 164.045 12.556 164.509 12.556C164.917 12.556 165.297 12.636 165.649 12.796C166.001 12.948 166.305 13.16 166.561 13.432C166.825 13.704 167.025 14.028 167.161 14.404C167.305 14.772 167.373 15.176 167.365 15.616L167.353 16.144H162.205L161.929 15.16H166.285L166.105 15.364V15.076C166.081 14.812 165.993 14.576 165.841 14.368C165.689 14.16 165.497 13.996 165.265 13.876C165.033 13.756 164.781 13.696 164.509 13.696C164.077 13.696 163.713 13.78 163.417 13.948C163.121 14.108 162.897 14.348 162.745 14.668C162.593 14.98 162.517 15.368 162.517 15.832C162.517 16.272 162.609 16.656 162.793 16.984C162.977 17.304 163.237 17.552 163.573 17.728C163.909 17.904 164.297 17.992 164.737 17.992C165.049 17.992 165.337 17.94 165.601 17.836C165.873 17.732 166.165 17.544 166.477 17.272L167.101 18.148C166.909 18.34 166.673 18.508 166.393 18.652C166.121 18.796 165.829 18.912 165.517 19C165.213 19.08 164.913 19.12 164.617 19.12ZM171.737 19.12C171.161 19.12 170.645 18.98 170.189 18.7C169.741 18.412 169.385 18.024 169.121 17.536C168.857 17.04 168.725 16.476 168.725 15.844C168.725 15.212 168.853 14.652 169.109 14.164C169.373 13.668 169.729 13.28 170.177 13C170.625 12.712 171.133 12.568 171.701 12.568C172.013 12.568 172.313 12.62 172.601 12.724C172.897 12.82 173.161 12.956 173.393 13.132C173.625 13.3 173.805 13.488 173.933 13.696C174.069 13.896 174.137 14.1 174.137 14.308L173.777 14.332V10.12H175.013V19H173.777V17.5H174.017C174.017 17.692 173.953 17.884 173.825 18.076C173.697 18.26 173.525 18.432 173.309 18.592C173.101 18.752 172.857 18.88 172.577 18.976C172.305 19.072 172.025 19.12 171.737 19.12ZM171.905 18.052C172.281 18.052 172.613 17.956 172.901 17.764C173.189 17.572 173.413 17.312 173.573 16.984C173.741 16.648 173.825 16.268 173.825 15.844C173.825 15.42 173.741 15.044 173.573 14.716C173.413 14.38 173.189 14.116 172.901 13.924C172.613 13.732 172.281 13.636 171.905 13.636C171.529 13.636 171.197 13.732 170.909 13.924C170.621 14.116 170.393 14.38 170.225 14.716C170.065 15.044 169.985 15.42 169.985 15.844C169.985 16.268 170.065 16.648 170.225 16.984C170.393 17.312 170.621 17.572 170.909 17.764C171.197 17.956 171.529 18.052 171.905 18.052ZM184.189 19.12C183.917 19.12 183.645 19.076 183.373 18.988C183.109 18.9 182.865 18.784 182.641 18.64C182.425 18.488 182.241 18.324 182.089 18.148C181.945 17.964 181.849 17.78 181.801 17.596L182.113 17.428V18.964H180.877V10.12H182.113V14.14L181.921 14.032C181.961 13.848 182.049 13.672 182.185 13.504C182.321 13.328 182.493 13.172 182.701 13.036C182.917 12.892 183.149 12.78 183.397 12.7C183.645 12.612 183.897 12.568 184.153 12.568C184.721 12.568 185.225 12.708 185.665 12.988C186.105 13.268 186.453 13.656 186.709 14.152C186.965 14.64 187.093 15.2 187.093 15.832C187.093 16.464 186.965 17.028 186.709 17.524C186.461 18.02 186.117 18.412 185.677 18.7C185.237 18.98 184.741 19.12 184.189 19.12ZM183.985 17.992C184.353 17.992 184.681 17.9 184.969 17.716C185.257 17.524 185.485 17.268 185.653 16.948C185.821 16.62 185.905 16.248 185.905 15.832C185.905 15.424 185.821 15.06 185.653 14.74C185.493 14.412 185.269 14.156 184.981 13.972C184.693 13.788 184.361 13.696 183.985 13.696C183.609 13.696 183.277 13.788 182.989 13.972C182.701 14.156 182.473 14.412 182.305 14.74C182.137 15.06 182.053 15.424 182.053 15.832C182.053 16.248 182.137 16.62 182.305 16.948C182.473 17.268 182.701 17.524 182.989 17.716C183.277 17.9 183.609 17.992 183.985 17.992ZM189.658 21.76L190.93 18.82L190.942 19.804L187.798 12.7H189.238L191.206 17.332C191.246 17.412 191.294 17.536 191.35 17.704C191.406 17.864 191.454 18.024 191.494 18.184L191.182 18.256C191.246 18.088 191.306 17.92 191.362 17.752C191.426 17.584 191.486 17.416 191.542 17.248L193.186 12.7H194.65L192.058 19L190.99 21.76H189.658ZM201.945 19.12C201.497 19.12 201.105 19.016 200.769 18.808C200.441 18.6 200.185 18.308 200.001 17.932C199.825 17.556 199.737 17.108 199.737 16.588V12.7H200.973V16.252C200.973 16.804 201.101 17.24 201.357 17.56C201.621 17.88 201.985 18.04 202.449 18.04C202.681 18.04 202.893 18.004 203.085 17.932C203.277 17.852 203.441 17.744 203.577 17.608C203.721 17.472 203.833 17.308 203.913 17.116C203.993 16.924 204.033 16.716 204.033 16.492V12.7H205.269V19H204.033V17.68L204.249 17.536C204.153 17.832 203.989 18.1 203.757 18.34C203.533 18.58 203.265 18.772 202.953 18.916C202.641 19.052 202.305 19.12 201.945 19.12ZM209.503 19.12C208.975 19.12 208.499 19.028 208.075 18.844C207.651 18.66 207.299 18.388 207.019 18.028L207.859 17.308C208.099 17.588 208.359 17.792 208.639 17.92C208.927 18.04 209.251 18.1 209.611 18.1C209.755 18.1 209.887 18.084 210.007 18.052C210.135 18.012 210.243 17.956 210.331 17.884C210.427 17.812 210.499 17.728 210.547 17.632C210.595 17.528 210.619 17.416 210.619 17.296C210.619 17.088 210.543 16.92 210.391 16.792C210.311 16.736 210.183 16.676 210.007 16.612C209.839 16.54 209.619 16.468 209.347 16.396C208.883 16.276 208.503 16.14 208.207 15.988C207.911 15.836 207.683 15.664 207.523 15.472C207.403 15.32 207.315 15.156 207.259 14.98C207.203 14.796 207.175 14.596 207.175 14.38C207.175 14.028 207.275 13.716 207.475 13.444C207.675 13.172 207.943 12.96 208.279 12.808C208.623 12.648 209.007 12.568 209.431 12.568C209.727 12.568 210.019 12.608 210.307 12.688C210.603 12.768 210.875 12.884 211.123 13.036C211.371 13.188 211.579 13.368 211.747 13.576L211.039 14.356C210.887 14.204 210.719 14.072 210.535 13.96C210.359 13.84 210.179 13.748 209.995 13.684C209.811 13.62 209.643 13.588 209.491 13.588C209.323 13.588 209.171 13.604 209.035 13.636C208.899 13.668 208.783 13.716 208.687 13.78C208.599 13.844 208.531 13.924 208.483 14.02C208.435 14.116 208.411 14.224 208.411 14.344C208.419 14.448 208.443 14.548 208.483 14.644C208.531 14.732 208.595 14.808 208.675 14.872C208.763 14.936 208.895 15.004 209.071 15.076C209.247 15.148 209.471 15.216 209.743 15.28C210.143 15.384 210.471 15.5 210.727 15.628C210.991 15.748 211.199 15.888 211.351 16.048C211.511 16.2 211.623 16.376 211.687 16.576C211.751 16.776 211.783 17 211.783 17.248C211.783 17.608 211.679 17.932 211.471 18.22C211.271 18.5 210.999 18.72 210.655 18.88C210.311 19.04 209.927 19.12 209.503 19.12ZM216.485 19.12C215.837 19.12 215.261 18.984 214.757 18.712C214.261 18.432 213.869 18.052 213.581 17.572C213.301 17.092 213.161 16.54 213.161 15.916C213.161 15.42 213.241 14.968 213.401 14.56C213.561 14.152 213.781 13.8 214.061 13.504C214.349 13.2 214.689 12.968 215.081 12.808C215.481 12.64 215.913 12.556 216.377 12.556C216.785 12.556 217.165 12.636 217.517 12.796C217.869 12.948 218.173 13.16 218.429 13.432C218.693 13.704 218.893 14.028 219.029 14.404C219.173 14.772 219.241 15.176 219.233 15.616L219.221 16.144H214.073L213.797 15.16H218.153L217.973 15.364V15.076C217.949 14.812 217.861 14.576 217.709 14.368C217.557 14.16 217.365 13.996 217.133 13.876C216.901 13.756 216.649 13.696 216.377 13.696C215.945 13.696 215.581 13.78 215.285 13.948C214.989 14.108 214.765 14.348 214.613 14.668C214.461 14.98 214.385 15.368 214.385 15.832C214.385 16.272 214.477 16.656 214.661 16.984C214.845 17.304 215.105 17.552 215.441 17.728C215.777 17.904 216.165 17.992 216.605 17.992C216.917 17.992 217.205 17.94 217.469 17.836C217.741 17.732 218.033 17.544 218.345 17.272L218.969 18.148C218.777 18.34 218.541 18.508 218.261 18.652C217.989 18.796 217.697 18.912 217.385 19C217.081 19.08 216.781 19.12 216.485 19.12ZM220.977 19V12.7H222.225V14.68L222.105 14.2C222.193 13.896 222.341 13.62 222.549 13.372C222.765 13.124 223.009 12.928 223.281 12.784C223.561 12.64 223.849 12.568 224.145 12.568C224.281 12.568 224.409 12.58 224.529 12.604C224.657 12.628 224.757 12.656 224.829 12.688L224.505 14.032C224.409 13.992 224.301 13.96 224.181 13.936C224.069 13.904 223.957 13.888 223.845 13.888C223.629 13.888 223.421 13.932 223.221 14.02C223.029 14.1 222.857 14.216 222.705 14.368C222.561 14.512 222.445 14.684 222.357 14.884C222.269 15.076 222.225 15.288 222.225 15.52V19H220.977ZM228.316 19.12C227.788 19.12 227.312 19.028 226.888 18.844C226.464 18.66 226.112 18.388 225.832 18.028L226.672 17.308C226.912 17.588 227.172 17.792 227.452 17.92C227.74 18.04 228.064 18.1 228.424 18.1C228.568 18.1 228.7 18.084 228.82 18.052C228.948 18.012 229.056 17.956 229.144 17.884C229.24 17.812 229.312 17.728 229.36 17.632C229.408 17.528 229.432 17.416 229.432 17.296C229.432 17.088 229.356 16.92 229.204 16.792C229.124 16.736 228.996 16.676 228.82 16.612C228.652 16.54 228.432 16.468 228.16 16.396C227.696 16.276 227.316 16.14 227.02 15.988C226.724 15.836 226.496 15.664 226.336 15.472C226.216 15.32 226.128 15.156 226.072 14.98C226.016 14.796 225.988 14.596 225.988 14.38C225.988 14.028 226.088 13.716 226.288 13.444C226.488 13.172 226.756 12.96 227.092 12.808C227.436 12.648 227.82 12.568 228.244 12.568C228.54 12.568 228.832 12.608 229.12 12.688C229.416 12.768 229.688 12.884 229.936 13.036C230.184 13.188 230.392 13.368 230.56 13.576L229.852 14.356C229.7 14.204 229.532 14.072 229.348 13.96C229.172 13.84 228.992 13.748 228.808 13.684C228.624 13.62 228.456 13.588 228.304 13.588C228.136 13.588 227.984 13.604 227.848 13.636C227.712 13.668 227.596 13.716 227.5 13.78C227.412 13.844 227.344 13.924 227.296 14.02C227.248 14.116 227.224 14.224 227.224 14.344C227.232 14.448 227.256 14.548 227.296 14.644C227.344 14.732 227.408 14.808 227.488 14.872C227.576 14.936 227.708 15.004 227.884 15.076C228.06 15.148 228.284 15.216 228.556 15.28C228.956 15.384 229.284 15.5 229.54 15.628C229.804 15.748 230.012 15.888 230.164 16.048C230.324 16.2 230.436 16.376 230.5 16.576C230.564 16.776 230.596 17 230.596 17.248C230.596 17.608 230.492 17.932 230.284 18.22C230.084 18.5 229.812 18.72 229.468 18.88C229.124 19.04 228.74 19.12 228.316 19.12Z" fill="#94A3B8"/>
<path d="M76.672 40.048C75.9573 40.048 75.3067 39.904 74.72 39.616C74.1333 39.3173 73.664 38.9227 73.312 38.432C72.96 37.9307 72.784 37.376 72.784 36.768C72.784 36.416 72.832 36.0853 72.928 35.776C73.024 35.4667 73.168 35.1893 73.36 34.944C73.552 34.688 73.7867 34.464 74.064 34.272C74.352 34.0693 74.6827 33.8933 75.056 33.744L74.928 34.192C74.544 34.0427 74.2133 33.8507 73.936 33.616C73.6693 33.3813 73.4613 33.1093 73.312 32.8C73.1627 32.4907 73.088 32.1547 73.088 31.792C73.088 31.2267 73.248 30.7147 73.568 30.256C73.888 29.7973 74.32 29.4293 74.864 29.152C75.408 28.8747 76.0107 28.736 76.672 28.736C77.344 28.736 77.9467 28.8747 78.48 29.152C79.024 29.4293 79.456 29.7973 79.776 30.256C80.1067 30.7147 80.272 31.2267 80.272 31.792C80.272 32.1547 80.1973 32.4853 80.048 32.784C79.9093 33.0827 79.7013 33.3493 79.424 33.584C79.1573 33.8187 78.816 34.0213 78.4 34.192L78.32 33.808C78.768 33.968 79.1627 34.1973 79.504 34.496C79.8453 34.784 80.112 35.1253 80.304 35.52C80.496 35.904 80.592 36.32 80.592 36.768C80.592 37.3867 80.416 37.9467 80.064 38.448C79.712 38.9387 79.2373 39.328 78.64 39.616C78.0533 39.904 77.3973 40.048 76.672 40.048ZM76.672 38.256C77.0347 38.256 77.36 38.1867 77.648 38.048C77.936 37.9093 78.16 37.7227 78.32 37.488C78.4907 37.2533 78.576 36.9813 78.576 36.672C78.576 36.352 78.4907 36.0693 78.32 35.824C78.16 35.568 77.936 35.3653 77.648 35.216C77.36 35.0667 77.0347 34.992 76.672 34.992C76.32 34.992 76 35.0667 75.712 35.216C75.424 35.3653 75.1947 35.568 75.024 35.824C74.864 36.0693 74.784 36.352 74.784 36.672C74.784 36.9707 74.864 37.2427 75.024 37.488C75.1947 37.7227 75.424 37.9093 75.712 38.048C76 38.1867 76.32 38.256 76.672 38.256ZM76.672 33.248C76.992 33.248 77.2747 33.1893 77.52 33.072C77.7653 32.944 77.9573 32.7787 78.096 32.576C78.2453 32.3733 78.32 32.1387 78.32 31.872C78.32 31.6053 78.2453 31.3707 78.096 31.168C77.9573 30.9547 77.7653 30.784 77.52 30.656C77.2747 30.528 76.992 30.464 76.672 30.464C76.3627 30.464 76.08 30.528 75.824 30.656C75.5787 30.784 75.3813 30.9547 75.232 31.168C75.0933 31.3707 75.024 31.6053 75.024 31.872C75.024 32.1387 75.0933 32.3733 75.232 32.576C75.3813 32.7787 75.5787 32.944 75.824 33.072C76.08 33.1893 76.3627 33.248 76.672 33.248ZM84.8994 39.216V30.144L85.5074 30.88L83.2354 32.032L82.7714 30.224L85.8274 28.64H86.9634V39.216H84.8994ZM83.0434 40V38.08H88.8834V40H83.0434ZM91.2951 42.976L90.6391 42.192C91.0338 41.9787 91.3538 41.728 91.5991 41.44C91.8445 41.1627 91.9671 40.9227 91.9671 40.72C91.9671 40.6133 91.9405 40.5067 91.8871 40.4C91.8338 40.2933 91.7165 40.1547 91.5351 39.984C91.3111 39.792 91.1618 39.6213 91.0871 39.472C91.0231 39.3227 90.9911 39.1573 90.9911 38.976C90.9911 38.688 91.0925 38.464 91.2951 38.304C91.4978 38.1333 91.7538 38.048 92.0631 38.048C92.3511 38.048 92.6071 38.128 92.8311 38.288C93.0658 38.448 93.2471 38.672 93.3751 38.96C93.5031 39.2373 93.5671 39.5627 93.5671 39.936C93.5671 40.2667 93.5085 40.5867 93.3911 40.896C93.2845 41.216 93.1245 41.5093 92.9111 41.776C92.7085 42.0427 92.4685 42.2773 92.1911 42.48C91.9245 42.6933 91.6258 42.8587 91.2951 42.976ZM97.9297 40L97.8657 39.84L101.258 32.752L101.434 33.984C101.231 34.4213 100.954 34.8053 100.602 35.136C100.26 35.4667 99.8817 35.7227 99.4657 35.904C99.0604 36.0853 98.6551 36.176 98.2497 36.176C97.6417 36.176 97.0817 36.016 96.5697 35.696C96.0577 35.3653 95.6471 34.9333 95.3377 34.4C95.0284 33.856 94.8737 33.264 94.8737 32.624C94.8737 31.8667 95.0444 31.184 95.3857 30.576C95.7377 29.9573 96.2177 29.472 96.8257 29.12C97.4337 28.7573 98.1164 28.576 98.8737 28.576C99.4177 28.576 99.9297 28.6773 100.41 28.88C100.89 29.072 101.306 29.344 101.658 29.696C102.02 30.048 102.303 30.4533 102.506 30.912C102.719 31.36 102.826 31.8453 102.826 32.368C102.826 32.6667 102.794 32.9813 102.73 33.312C102.676 33.632 102.586 33.984 102.458 34.368C102.34 34.752 102.18 35.1787 101.978 35.648C101.786 36.1067 101.546 36.6293 101.258 37.216L99.9137 40H97.9297ZM98.7137 34.384C99.0977 34.384 99.4391 34.2987 99.7377 34.128C100.047 33.9467 100.287 33.712 100.458 33.424C100.628 33.136 100.714 32.8053 100.714 32.432C100.714 32.048 100.628 31.7013 100.458 31.392C100.298 31.0827 100.068 30.8427 99.7697 30.672C99.4711 30.4907 99.1244 30.4 98.7297 30.4C98.3671 30.4 98.0471 30.4853 97.7697 30.656C97.4924 30.8267 97.2737 31.0667 97.1137 31.376C96.9537 31.6747 96.8737 32.0267 96.8737 32.432C96.8737 32.7733 96.9537 33.0933 97.1137 33.392C97.2844 33.68 97.5084 33.92 97.7857 34.112C98.0631 34.2933 98.3724 34.384 98.7137 34.384ZM105.079 40L109.671 29.872L110.039 30.624H104.327V28.768H111.383L111.607 29.936L107.239 40H105.079ZM113.265 40L112.737 38.672L116.097 34.928C116.278 34.7253 116.47 34.5013 116.673 34.256C116.876 34 117.068 33.7387 117.249 33.472C117.441 33.2053 117.596 32.944 117.713 32.688C117.83 32.4213 117.889 32.176 117.889 31.952C117.889 31.6533 117.825 31.3973 117.697 31.184C117.58 30.9707 117.409 30.8053 117.185 30.688C116.961 30.5707 116.684 30.512 116.353 30.512C116.076 30.512 115.798 30.5973 115.521 30.768C115.244 30.928 114.988 31.1627 114.753 31.472C114.529 31.7707 114.342 32.128 114.193 32.544L112.641 31.616C112.833 30.9973 113.121 30.464 113.505 30.016C113.889 29.568 114.342 29.2213 114.865 28.976C115.398 28.7307 115.974 28.608 116.593 28.608C117.233 28.608 117.804 28.7413 118.305 29.008C118.806 29.2747 119.201 29.6427 119.489 30.112C119.788 30.5813 119.937 31.1307 119.937 31.76C119.937 32.0587 119.894 32.368 119.809 32.688C119.724 33.008 119.59 33.344 119.409 33.696C119.228 34.048 118.993 34.4213 118.705 34.816C118.417 35.2 118.065 35.616 117.649 36.064L115.137 38.8L114.801 38.08H120.337V40H113.265ZM127.11 40V28.8H129.174V40H127.11ZM128.054 35.392V33.52H133.846V35.392H128.054ZM128.054 30.72V28.8H134.534V30.72H128.054ZM139.271 40.16C138.663 40.16 138.135 40.0213 137.687 39.744C137.249 39.4667 136.908 39.0773 136.663 38.576C136.428 38.0747 136.311 37.472 136.311 36.768V31.568H138.263V36.352C138.263 37.0133 138.417 37.536 138.727 37.92C139.047 38.304 139.489 38.496 140.055 38.496C140.332 38.496 140.583 38.4533 140.807 38.368C141.041 38.272 141.244 38.144 141.415 37.984C141.585 37.8133 141.719 37.6107 141.815 37.376C141.911 37.1413 141.959 36.8907 141.959 36.624V31.568H143.911V40H142.007L141.975 38.24L142.327 38.048C142.199 38.4427 141.98 38.8 141.671 39.12C141.372 39.44 141.015 39.696 140.599 39.888C140.183 40.0693 139.74 40.16 139.271 40.16ZM147.261 40V29.424H149.213V40H147.261ZM145.597 33.392V31.568H151.053V33.392H145.597ZM155.781 40.16C155.045 40.16 154.378 40.0373 153.781 39.792C153.194 39.536 152.714 39.1733 152.34 38.704L153.605 37.616C153.925 37.968 154.282 38.2293 154.677 38.4C155.071 38.56 155.487 38.64 155.924 38.64C156.106 38.64 156.266 38.6187 156.405 38.576C156.554 38.5333 156.682 38.4693 156.789 38.384C156.895 38.2987 156.975 38.1973 157.029 38.08C157.093 37.9627 157.125 37.8347 157.125 37.696C157.125 37.44 157.029 37.2373 156.837 37.088C156.73 37.024 156.565 36.9493 156.341 36.864C156.117 36.768 155.823 36.6773 155.461 36.592C154.885 36.4427 154.399 36.272 154.005 36.08C153.621 35.8773 153.322 35.6533 153.109 35.408C152.927 35.1947 152.794 34.9653 152.709 34.72C152.623 34.464 152.581 34.1813 152.581 33.872C152.581 33.392 152.719 32.9653 152.997 32.592C153.285 32.2187 153.663 31.9253 154.133 31.712C154.602 31.4987 155.125 31.392 155.701 31.392C156.127 31.392 156.538 31.4453 156.933 31.552C157.338 31.6587 157.711 31.8133 158.053 32.016C158.394 32.208 158.687 32.4427 158.933 32.72L157.845 33.92C157.653 33.728 157.434 33.5573 157.189 33.408C156.954 33.248 156.714 33.1253 156.469 33.04C156.223 32.9547 155.994 32.912 155.781 32.912C155.578 32.912 155.397 32.9333 155.237 32.976C155.077 33.008 154.943 33.0613 154.837 33.136C154.73 33.2107 154.645 33.3067 154.581 33.424C154.527 33.5307 154.501 33.6533 154.501 33.792C154.511 33.9307 154.543 34.0587 154.597 34.176C154.661 34.2827 154.746 34.3733 154.853 34.448C154.959 34.5227 155.13 34.608 155.365 34.704C155.599 34.8 155.903 34.8907 156.277 34.976C156.799 35.1147 157.237 35.2693 157.589 35.44C157.941 35.6107 158.218 35.808 158.421 36.032C158.623 36.224 158.767 36.448 158.853 36.704C158.938 36.96 158.981 37.248 158.981 37.568C158.981 38.0693 158.837 38.5173 158.549 38.912C158.271 39.296 157.893 39.6 157.413 39.824C156.933 40.048 156.389 40.16 155.781 40.16ZM164.654 40.16C163.812 40.16 163.06 39.9733 162.398 39.6C161.737 39.216 161.214 38.6933 160.83 38.032C160.457 37.3707 160.27 36.6187 160.27 35.776C160.27 34.9333 160.457 34.1813 160.83 33.52C161.214 32.8587 161.737 32.3413 162.398 31.968C163.06 31.584 163.812 31.392 164.654 31.392C165.486 31.392 166.233 31.584 166.894 31.968C167.556 32.3413 168.073 32.8587 168.446 33.52C168.83 34.1813 169.022 34.9333 169.022 35.776C169.022 36.6187 168.83 37.3707 168.446 38.032C168.073 38.6933 167.556 39.216 166.894 39.6C166.233 39.9733 165.486 40.16 164.654 40.16ZM164.654 38.416C165.113 38.416 165.524 38.304 165.886 38.08C166.249 37.8453 166.532 37.5307 166.734 37.136C166.948 36.7307 167.049 36.2773 167.038 35.776C167.049 35.264 166.948 34.8107 166.734 34.416C166.532 34.0107 166.249 33.696 165.886 33.472C165.524 33.248 165.113 33.136 164.654 33.136C164.196 33.136 163.78 33.2533 163.406 33.488C163.044 33.712 162.761 34.0267 162.558 34.432C162.356 34.8267 162.254 35.2747 162.254 35.776C162.254 36.2773 162.356 36.7307 162.558 37.136C162.761 37.5307 163.044 37.8453 163.406 38.08C163.78 38.304 164.196 38.416 164.654 38.416ZM170.899 40V28.16H172.851V40H170.899ZM180.068 43.52V31.568H181.988L182.02 33.472L181.684 33.328C181.748 32.9973 181.929 32.688 182.228 32.4C182.526 32.112 182.889 31.8773 183.316 31.696C183.753 31.5147 184.206 31.424 184.676 31.424C185.422 31.424 186.084 31.6107 186.66 31.984C187.246 32.3573 187.705 32.8747 188.036 33.536C188.377 34.1867 188.548 34.9333 188.548 35.776C188.548 36.6187 188.382 37.3707 188.052 38.032C187.721 38.6827 187.262 39.2 186.676 39.584C186.1 39.9573 185.444 40.144 184.708 40.144C184.217 40.144 183.742 40.048 183.284 39.856C182.836 39.664 182.457 39.4133 182.148 39.104C181.838 38.7947 181.641 38.4747 181.556 38.144L182.036 37.904V43.52H180.068ZM184.324 38.4C184.772 38.4 185.172 38.288 185.524 38.064C185.876 37.84 186.153 37.5307 186.356 37.136C186.558 36.7413 186.66 36.288 186.66 35.776C186.66 35.264 186.558 34.816 186.356 34.432C186.164 34.0373 185.892 33.728 185.54 33.504C185.188 33.2693 184.782 33.152 184.324 33.152C183.854 33.152 183.444 33.264 183.092 33.488C182.74 33.712 182.462 34.0213 182.26 34.416C182.057 34.8107 181.956 35.264 181.956 35.776C181.956 36.288 182.057 36.7413 182.26 37.136C182.462 37.5307 182.74 37.84 183.092 38.064C183.444 38.288 183.854 38.4 184.324 38.4ZM194.242 40.16C193.399 40.16 192.647 39.9733 191.986 39.6C191.325 39.216 190.802 38.6933 190.418 38.032C190.045 37.3707 189.858 36.6187 189.858 35.776C189.858 34.9333 190.045 34.1813 190.418 33.52C190.802 32.8587 191.325 32.3413 191.986 31.968C192.647 31.584 193.399 31.392 194.242 31.392C195.074 31.392 195.821 31.584 196.482 31.968C197.143 32.3413 197.661 32.8587 198.034 33.52C198.418 34.1813 198.61 34.9333 198.61 35.776C198.61 36.6187 198.418 37.3707 198.034 38.032C197.661 38.6933 197.143 39.216 196.482 39.6C195.821 39.9733 195.074 40.16 194.242 40.16ZM194.242 38.416C194.701 38.416 195.111 38.304 195.474 38.08C195.837 37.8453 196.119 37.5307 196.322 37.136C196.535 36.7307 196.637 36.2773 196.626 35.776C196.637 35.264 196.535 34.8107 196.322 34.416C196.119 34.0107 195.837 33.696 195.474 33.472C195.111 33.248 194.701 33.136 194.242 33.136C193.783 33.136 193.367 33.2533 192.994 33.488C192.631 33.712 192.349 34.0267 192.146 34.432C191.943 34.8267 191.842 35.2747 191.842 35.776C191.842 36.2773 191.943 36.7307 192.146 37.136C192.349 37.5307 192.631 37.8453 192.994 38.08C193.367 38.304 193.783 38.416 194.242 38.416ZM200.695 40V31.568H202.647V40H200.695ZM201.655 29.776C201.26 29.776 200.951 29.68 200.727 29.488C200.513 29.2853 200.407 29.0027 200.407 28.64C200.407 28.2987 200.519 28.0267 200.743 27.824C200.967 27.6107 201.271 27.504 201.655 27.504C202.049 27.504 202.353 27.6053 202.567 27.808C202.791 28 202.903 28.2773 202.903 28.64C202.903 28.9707 202.791 29.2427 202.567 29.456C202.343 29.6693 202.039 29.776 201.655 29.776ZM205.243 40V31.568H207.147L207.179 33.296L206.811 33.488C206.928 33.1147 207.136 32.7733 207.435 32.464C207.744 32.144 208.112 31.888 208.539 31.696C208.965 31.4933 209.408 31.392 209.867 31.392C210.507 31.392 211.04 31.52 211.467 31.776C211.904 32.032 212.229 32.416 212.443 32.928C212.656 33.44 212.763 34.08 212.763 34.848V40H210.811V34.992C210.811 34.5547 210.752 34.1973 210.635 33.92C210.517 33.632 210.336 33.424 210.091 33.296C209.845 33.1573 209.547 33.0987 209.195 33.12C208.907 33.12 208.64 33.168 208.395 33.264C208.149 33.3493 207.936 33.4773 207.755 33.648C207.584 33.808 207.445 34 207.339 34.224C207.243 34.4373 207.195 34.672 207.195 34.928V40H206.219C206.037 40 205.861 40 205.691 40C205.531 40 205.381 40 205.243 40ZM216.021 40V29.424H217.973V40H216.021ZM214.357 33.392V31.568H219.813V33.392H214.357ZM224.54 40.16C223.804 40.16 223.137 40.0373 222.54 39.792C221.953 39.536 221.473 39.1733 221.1 38.704L222.364 37.616C222.684 37.968 223.041 38.2293 223.436 38.4C223.831 38.56 224.247 38.64 224.684 38.64C224.865 38.64 225.025 38.6187 225.164 38.576C225.313 38.5333 225.441 38.4693 225.548 38.384C225.655 38.2987 225.735 38.1973 225.788 38.08C225.852 37.9627 225.884 37.8347 225.884 37.696C225.884 37.44 225.788 37.2373 225.596 37.088C225.489 37.024 225.324 36.9493 225.1 36.864C224.876 36.768 224.583 36.6773 224.22 36.592C223.644 36.4427 223.159 36.272 222.764 36.08C222.38 35.8773 222.081 35.6533 221.868 35.408C221.687 35.1947 221.553 34.9653 221.468 34.72C221.383 34.464 221.34 34.1813 221.34 33.872C221.34 33.392 221.479 32.9653 221.756 32.592C222.044 32.2187 222.423 31.9253 222.892 31.712C223.361 31.4987 223.884 31.392 224.46 31.392C224.887 31.392 225.297 31.4453 225.692 31.552C226.097 31.6587 226.471 31.8133 226.812 32.016C227.153 32.208 227.447 32.4427 227.692 32.72L226.604 33.92C226.412 33.728 226.193 33.5573 225.948 33.408C225.713 33.248 225.473 33.1253 225.228 33.04C224.983 32.9547 224.753 32.912 224.54 32.912C224.337 32.912 224.156 32.9333 223.996 32.976C223.836 33.008 223.703 33.0613 223.596 33.136C223.489 33.2107 223.404 33.3067 223.34 33.424C223.287 33.5307 223.26 33.6533 223.26 33.792C223.271 33.9307 223.303 34.0587 223.356 34.176C223.42 34.2827 223.505 34.3733 223.612 34.448C223.719 34.5227 223.889 34.608 224.124 34.704C224.359 34.8 224.663 34.8907 225.036 34.976C225.559 35.1147 225.996 35.2693 226.348 35.44C226.7 35.6107 226.977 35.808 227.18 36.032C227.383 36.224 227.527 36.448 227.612 36.704C227.697 36.96 227.74 37.248 227.74 37.568C227.74 38.0693 227.596 38.5173 227.308 38.912C227.031 39.296 226.652 39.6 226.172 39.824C225.692 40.048 225.148 40.16 224.54 40.16Z" fill="white"/>
</g>
</g>
<defs>
<clipPath id="clip0_3297_9275">
<rect width="300" height="52" fill="white"/>
</clipPath>
<clipPath id="clip1_3297_9275">
<rect width="24" height="24" fill="white" transform="translate(24 14)"/>
</clipPath>
<clipPath id="clip2_3297_9275">
<rect width="212" height="40" fill="white" transform="translate(72 6)"/>
</clipPath>
</defs>
</svg>
